M48
; DRILL file {KiCad 8.0.8-8.0.8-0~ubuntu24.04.1} date 2025-02-03T16:43:05+0800
; FORMAT={-:-/ absolute / metric / decimal}
; #@! TF.CreationDate,2025-02-03T16:43:05+08:00
; #@! TF.GenerationSoftware,Kicad,Pcbnew,8.0.8-8.0.8-0~ubuntu24.04.1
; #@! TF.FileFunction,Plated,1,2,PTH
FMAT,2
METRIC
; #@! TA.AperFunction,Plated,PTH,ViaDrill
T1C0.300
; #@! TA.AperFunction,Plated,PTH,ComponentDrill
T2C0.750
; #@! TA.AperFunction,Plated,PTH,ComponentDrill
T3C0.800
; #@! TA.AperFunction,Plated,PTH,ComponentDrill
T4C0.900
; #@! TA.AperFunction,Plated,PTH,ComponentDrill
T5C1.000
; #@! TA.AperFunction,Plated,PTH,ComponentDrill
T6C1.020
; #@! TA.AperFunction,Plated,PTH,ComponentDrill
T7C1.070
; #@! TA.AperFunction,Plated,PTH,ComponentDrill
T8C1.300
; #@! TA.AperFunction,Plated,PTH,ComponentDrill
T9C1.400
%
G90
G05
T1
X122.5Y-78.25
X132.375Y-104.125
X148.0Y-110.75
T2
X126.23Y-82.64
X126.73Y-101.64
X127.5Y-82.64
X128.0Y-101.64
X128.77Y-82.64
X129.27Y-101.64
T3
X125.5Y-68.34
X125.5Y-78.5
X126.0Y-87.92
X126.0Y-98.08
X126.5Y-56.5
X126.5Y-64.0
X142.5Y-56.75
X142.5Y-64.25
T4
X130.0Y-68.5
X130.0Y-78.66
X130.0Y-87.92
X130.0Y-98.08
T5
X126.46Y-109.2
X126.46Y-111.74
X126.46Y-114.28
X126.46Y-116.82
X127.445Y-123.0
X129.0Y-109.2
X129.0Y-111.74
X129.0Y-114.28
X129.0Y-116.82
X129.985Y-123.0
X132.525Y-123.0
X136.945Y-123.0
X139.485Y-123.0
X142.025Y-123.0
X145.735Y-123.0
X148.275Y-123.0
X148.55Y-69.45
X148.55Y-81.45
X148.55Y-88.45
X148.55Y-100.45
X150.25Y-46.475
X150.25Y-49.015
X150.25Y-51.555
X154.5Y-46.5
X154.5Y-49.04
X154.5Y-51.58
X154.5Y-69.2
X154.5Y-71.74
X154.5Y-74.28
X154.5Y-76.82
X154.5Y-82.7
X154.5Y-85.24
X154.5Y-87.78
X154.5Y-90.32
X154.5Y-95.975
X154.5Y-98.515
X154.5Y-101.055
X154.5Y-107.42
X154.5Y-109.96
X154.5Y-112.5
X154.5Y-115.04
X154.5Y-118.96
X154.5Y-121.5
T6
X56.2Y-75.98
X56.2Y-78.52
X56.2Y-81.06
X56.2Y-83.6
X56.2Y-86.14
X56.2Y-88.68
X56.2Y-91.22
X56.2Y-93.76
X56.2Y-96.3
X56.2Y-98.84
X56.2Y-101.38
X56.2Y-103.92
X56.2Y-106.46
X56.2Y-109.0
X56.2Y-111.54
X56.2Y-114.08
X56.2Y-116.62
X56.2Y-119.16
X56.2Y-121.7
X58.74Y-75.98
X58.74Y-78.52
X58.74Y-81.06
X58.74Y-83.6
X58.74Y-86.14
X58.74Y-88.68
X58.74Y-91.22
X58.74Y-93.76
X58.74Y-96.3
X58.74Y-98.84
X58.74Y-101.38
X58.74Y-103.92
X58.74Y-106.46
X58.74Y-109.0
X58.74Y-111.54
X58.74Y-114.08
X58.74Y-116.62
X58.74Y-119.16
X58.74Y-121.7
X117.16Y-75.98
X117.16Y-78.52
X117.16Y-81.06
X117.16Y-83.6
X117.16Y-86.14
X117.16Y-88.68
X117.16Y-91.22
X117.16Y-93.76
X117.16Y-96.3
X117.16Y-98.84
X117.16Y-101.38
X117.16Y-103.92
X117.16Y-106.46
X117.16Y-109.0
X117.16Y-111.54
X117.16Y-114.08
X117.16Y-116.62
X117.16Y-119.16
X117.16Y-121.7
X119.7Y-75.98
X119.7Y-78.52
X119.7Y-81.06
X119.7Y-83.6
X119.7Y-86.14
X119.7Y-88.68
X119.7Y-91.22
X119.7Y-93.76
X119.7Y-96.3
X119.7Y-98.84
X119.7Y-101.38
X119.7Y-103.92
X119.7Y-106.46
X119.7Y-109.0
X119.7Y-111.54
X119.7Y-114.08
X119.7Y-116.62
X119.7Y-119.16
X119.7Y-121.7
T7
X63.82Y-86.14
X63.82Y-88.68
X63.82Y-91.22
X63.82Y-93.76
X63.82Y-96.3
X63.82Y-98.84
X63.82Y-101.38
X63.82Y-103.92
X63.82Y-109.0
X63.82Y-111.54
X63.82Y-114.08
X63.82Y-116.62
X63.82Y-119.16
X63.82Y-121.7
X112.08Y-77.0
X112.08Y-79.54
X112.08Y-82.08
X112.08Y-84.62
X112.08Y-87.16
X112.08Y-89.7
X112.08Y-92.24
X112.08Y-94.78
X112.08Y-97.32
X112.08Y-99.86
X112.08Y-103.92
X112.08Y-106.46
X112.08Y-109.0
X112.08Y-111.54
X112.08Y-114.08
X112.08Y-116.62
X112.08Y-119.16
X112.08Y-121.7
T8
X136.3Y-81.5
X136.3Y-100.5
X136.35Y-69.45
X136.35Y-88.45
X150.5Y-75.5
X150.5Y-94.5
T9
X140.0Y-49.0
X145.0Y-49.0
X149.75Y-58.0
X149.75Y-63.0
T5
X126.8Y-49.55G85X126.8Y-51.55
G05
X132.5Y-47.55G85X130.5Y-47.55
G05
X132.75Y-53.75G85X130.25Y-53.75
G05
M30
