G04 #@! TF.GenerationSoftware,KiCad,Pcbnew,8.0.8-8.0.8-0~ubuntu24.04.1*
G04 #@! TF.CreationDate,2025-02-03T16:40:28+08:00*
G04 #@! TF.ProjectId,Untitled,556e7469-746c-4656-942e-6b696361645f,rev?*
G04 #@! TF.SameCoordinates,Original*
G04 #@! TF.FileFunction,Legend,Top*
G04 #@! TF.FilePolarity,Positive*
%FSLAX46Y46*%
G04 Gerber Fmt 4.6, Leading zero omitted, Abs format (unit mm)*
G04 Created by KiCad (PCBNEW 8.0.8-8.0.8-0~ubuntu24.04.1) date 2025-02-03 16:40:28*
%MOMM*%
%LPD*%
G01*
G04 APERTURE LIST*
G04 Aperture macros list*
%AMRoundRect*
0 Rectangle with rounded corners*
0 $1 Rounding radius*
0 $2 $3 $4 $5 $6 $7 $8 $9 X,Y pos of 4 corners*
0 Add a 4 corners polygon primitive as box body*
4,1,4,$2,$3,$4,$5,$6,$7,$8,$9,$2,$3,0*
0 Add four circle primitives for the rounded corners*
1,1,$1+$1,$2,$3*
1,1,$1+$1,$4,$5*
1,1,$1+$1,$6,$7*
1,1,$1+$1,$8,$9*
0 Add four rect primitives between the rounded corners*
20,1,$1+$1,$2,$3,$4,$5,0*
20,1,$1+$1,$4,$5,$6,$7,0*
20,1,$1+$1,$6,$7,$8,$9,0*
20,1,$1+$1,$8,$9,$2,$3,0*%
G04 Aperture macros list end*
%ADD10C,0.200000*%
%ADD11C,0.150000*%
%ADD12C,0.120000*%
%ADD13C,0.127000*%
%ADD14C,4.300000*%
%ADD15R,1.800000X1.800000*%
%ADD16O,1.800000X1.800000*%
%ADD17O,1.700000X1.700000*%
%ADD18R,1.700000X1.700000*%
%ADD19R,1.050000X1.500000*%
%ADD20O,1.050000X1.500000*%
%ADD21C,1.600000*%
%ADD22O,1.600000X1.600000*%
%ADD23C,3.000000*%
%ADD24RoundRect,0.102000X-0.802500X-0.802500X0.802500X-0.802500X0.802500X0.802500X-0.802500X0.802500X0*%
%ADD25C,1.809000*%
%ADD26RoundRect,0.102000X-0.765000X-0.765000X0.765000X-0.765000X0.765000X0.765000X-0.765000X0.765000X0*%
%ADD27C,1.734000*%
%ADD28R,2.800000X2.800000*%
%ADD29C,2.800000*%
%ADD30C,2.500000*%
%ADD31RoundRect,0.250000X-0.850000X-0.350000X0.850000X-0.350000X0.850000X0.350000X-0.850000X0.350000X0*%
%ADD32RoundRect,0.249997X-2.950003X-2.650003X2.950003X-2.650003X2.950003X2.650003X-2.950003X2.650003X0*%
%ADD33R,4.500000X2.000000*%
%ADD34O,4.000000X2.000000*%
%ADD35O,2.000000X4.000000*%
G04 APERTURE END LIST*
D10*
G36*
X58548813Y-125350027D02*
G01*
X58494262Y-125347958D01*
X58442716Y-125341750D01*
X58394176Y-125331403D01*
X58341344Y-125314101D01*
X58292602Y-125291165D01*
X58248326Y-125262818D01*
X58208887Y-125229282D01*
X58174288Y-125190556D01*
X58144526Y-125146642D01*
X58129692Y-125119218D01*
X58107899Y-125067323D01*
X58093479Y-125019157D01*
X58082992Y-124967591D01*
X58076437Y-124912625D01*
X58073815Y-124854259D01*
X58073761Y-124844200D01*
X58075526Y-124792664D01*
X58080820Y-124743629D01*
X58091193Y-124690651D01*
X58106175Y-124640940D01*
X58110642Y-124629023D01*
X58131021Y-124583609D01*
X58158290Y-124536934D01*
X58190157Y-124494934D01*
X58213956Y-124469532D01*
X58253045Y-124435479D01*
X58295572Y-124406411D01*
X58341539Y-124382328D01*
X58368562Y-124371102D01*
X58419279Y-124354927D01*
X58472237Y-124344046D01*
X58521193Y-124338817D01*
X58559071Y-124337641D01*
X58611921Y-124339315D01*
X58664110Y-124344959D01*
X58699511Y-124351807D01*
X58747924Y-124364596D01*
X58795523Y-124381760D01*
X58797941Y-124382826D01*
X58842912Y-124404395D01*
X58852163Y-124409937D01*
X58796231Y-124565275D01*
X58749886Y-124543538D01*
X58702622Y-124526921D01*
X58695359Y-124524731D01*
X58644987Y-124513345D01*
X58593267Y-124507987D01*
X58560781Y-124507145D01*
X58507992Y-124511388D01*
X58458436Y-124524115D01*
X58416189Y-124543049D01*
X58374305Y-124572235D01*
X58338654Y-124610426D01*
X58311653Y-124652958D01*
X58291045Y-124703066D01*
X58279024Y-124755016D01*
X58273529Y-124806642D01*
X58272575Y-124841514D01*
X58274970Y-124894906D01*
X58282157Y-124944897D01*
X58295762Y-124996455D01*
X58302861Y-125015903D01*
X58325153Y-125060535D01*
X58357442Y-125102357D01*
X58397871Y-125136559D01*
X58442092Y-125159743D01*
X58493851Y-125174340D01*
X58546878Y-125180136D01*
X58565910Y-125180523D01*
X58616653Y-125179055D01*
X58666055Y-125173979D01*
X58715640Y-125163102D01*
X58719295Y-125161960D01*
X58765670Y-125145999D01*
X58812107Y-125126301D01*
X58864619Y-125280662D01*
X58817715Y-125303131D01*
X58767053Y-125320487D01*
X58742498Y-125327557D01*
X58694196Y-125338419D01*
X58641064Y-125345726D01*
X58589780Y-125349237D01*
X58548813Y-125350027D01*
G37*
G36*
X58996755Y-125330000D02*
G01*
X58996755Y-124634152D01*
X59045795Y-124618190D01*
X59094453Y-124604955D01*
X59121074Y-124598492D01*
X59173729Y-124588758D01*
X59225555Y-124583415D01*
X59275419Y-124581462D01*
X59286915Y-124581395D01*
X59336960Y-124584203D01*
X59342847Y-124584815D01*
X59391797Y-124591499D01*
X59405129Y-124593852D01*
X59452928Y-124606503D01*
X59455443Y-124607529D01*
X59423935Y-124759204D01*
X59376097Y-124748004D01*
X59362630Y-124745282D01*
X59312694Y-124738775D01*
X59279344Y-124737711D01*
X59229255Y-124741264D01*
X59221946Y-124742351D01*
X59179448Y-124751388D01*
X59179448Y-125330000D01*
X58996755Y-125330000D01*
G37*
G36*
X59917489Y-124580098D02*
G01*
X59968417Y-124589275D01*
X60014862Y-124605059D01*
X60043335Y-124619253D01*
X60085887Y-124649235D01*
X60121951Y-124687278D01*
X60148861Y-124728411D01*
X60156664Y-124743572D01*
X60176145Y-124793392D01*
X60188109Y-124843126D01*
X60195035Y-124897989D01*
X60196964Y-124950202D01*
X60195498Y-124986106D01*
X60193056Y-125021032D01*
X59711653Y-125021032D01*
X59722041Y-125071455D01*
X59746341Y-125117376D01*
X59773447Y-125145596D01*
X59816620Y-125171322D01*
X59864934Y-125185442D01*
X59915799Y-125190605D01*
X59928053Y-125190781D01*
X59979724Y-125188631D01*
X60028310Y-125182179D01*
X60041625Y-125179546D01*
X60089192Y-125167639D01*
X60125889Y-125154389D01*
X60151290Y-125303377D01*
X60105051Y-125320533D01*
X60056181Y-125332731D01*
X60051884Y-125333663D01*
X60003411Y-125342146D01*
X59953033Y-125347107D01*
X59905582Y-125348562D01*
X59850254Y-125346166D01*
X59799461Y-125338978D01*
X59746964Y-125324896D01*
X59700390Y-125304555D01*
X59689672Y-125298492D01*
X59645712Y-125267449D01*
X59608631Y-125230649D01*
X59578427Y-125188091D01*
X59564619Y-125161960D01*
X59544902Y-125111606D01*
X59532793Y-125063960D01*
X59525782Y-125013596D01*
X59523831Y-124967299D01*
X59526215Y-124912722D01*
X59529073Y-124892561D01*
X59712386Y-124892561D01*
X60019155Y-124892561D01*
X60012249Y-124842647D01*
X60001570Y-124811472D01*
X59973575Y-124769272D01*
X59953454Y-124752121D01*
X59906323Y-124732601D01*
X59870900Y-124729406D01*
X59821695Y-124736024D01*
X59786636Y-124752854D01*
X59751240Y-124787296D01*
X59735589Y-124813182D01*
X59718168Y-124861477D01*
X59712386Y-124892561D01*
X59529073Y-124892561D01*
X59533368Y-124862259D01*
X59547381Y-124809625D01*
X59567623Y-124762364D01*
X59573656Y-124751388D01*
X59603963Y-124706036D01*
X59638829Y-124667522D01*
X59678255Y-124635848D01*
X59702128Y-124621207D01*
X59747180Y-124600073D01*
X59798824Y-124584703D01*
X59852138Y-124577872D01*
X59868457Y-124577487D01*
X59917489Y-124580098D01*
G37*
G36*
X60670341Y-124579217D02*
G01*
X60720312Y-124585430D01*
X60769011Y-124597821D01*
X60805617Y-124613635D01*
X60847037Y-124641898D01*
X60881756Y-124680893D01*
X60900628Y-124715729D01*
X60916619Y-124763918D01*
X60925396Y-124812385D01*
X60928688Y-124865289D01*
X60928715Y-124870823D01*
X60928715Y-125309972D01*
X60878218Y-125320169D01*
X60827923Y-125329019D01*
X60808792Y-125332198D01*
X60756752Y-125339153D01*
X60704981Y-125343210D01*
X60655037Y-125345065D01*
X60621946Y-125345387D01*
X60572558Y-125343571D01*
X60521716Y-125337293D01*
X60470692Y-125325208D01*
X60461967Y-125322428D01*
X60414638Y-125301053D01*
X60373131Y-125268517D01*
X60354989Y-125246957D01*
X60331771Y-125202627D01*
X60319901Y-125153301D01*
X60316887Y-125106762D01*
X60317276Y-125102121D01*
X60498848Y-125102121D01*
X60509257Y-125152348D01*
X60535729Y-125180523D01*
X60582497Y-125197484D01*
X60632399Y-125202239D01*
X60636357Y-125202260D01*
X60686869Y-125201161D01*
X60702547Y-125200307D01*
X60751399Y-125195145D01*
X60752616Y-125194933D01*
X60752616Y-125015415D01*
X60712316Y-125007599D01*
X60663136Y-125003752D01*
X60655896Y-125003691D01*
X60607124Y-125006744D01*
X60579692Y-125011507D01*
X60533485Y-125030420D01*
X60521318Y-125040083D01*
X60499923Y-125085127D01*
X60498848Y-125102121D01*
X60317276Y-125102121D01*
X60321061Y-125057026D01*
X60335295Y-125010140D01*
X60359630Y-124971451D01*
X60395785Y-124937734D01*
X60439772Y-124912054D01*
X60473447Y-124899399D01*
X60523413Y-124886884D01*
X60575918Y-124879564D01*
X60625854Y-124877418D01*
X60676224Y-124879311D01*
X60700593Y-124881814D01*
X60749171Y-124890785D01*
X60752616Y-124891828D01*
X60752616Y-124866671D01*
X60746267Y-124816873D01*
X60739183Y-124797062D01*
X60708179Y-124758273D01*
X60693021Y-124748457D01*
X60645029Y-124733366D01*
X60601674Y-124730383D01*
X60551873Y-124732020D01*
X60502768Y-124737404D01*
X60493475Y-124738932D01*
X60443466Y-124749785D01*
X60411409Y-124759937D01*
X60387962Y-124611437D01*
X60435188Y-124598797D01*
X60485170Y-124588967D01*
X60534332Y-124581971D01*
X60585829Y-124578205D01*
X60621458Y-124577487D01*
X60670341Y-124579217D01*
G37*
G36*
X61398883Y-125346364D02*
G01*
X61347729Y-125343998D01*
X61297225Y-125335679D01*
X61249855Y-125319412D01*
X61229623Y-125308506D01*
X61188979Y-125275499D01*
X61158640Y-125233630D01*
X61144138Y-125200795D01*
X61130371Y-125149879D01*
X61122815Y-125098283D01*
X61120052Y-125047523D01*
X61119958Y-125035687D01*
X61119958Y-124406273D01*
X61302651Y-124376720D01*
X61302651Y-124596294D01*
X61561793Y-124596294D01*
X61561793Y-124748702D01*
X61302651Y-124748702D01*
X61302651Y-125035687D01*
X61305960Y-125085946D01*
X61314375Y-125122393D01*
X61340616Y-125164388D01*
X61353210Y-125173928D01*
X61401897Y-125189448D01*
X61426238Y-125190781D01*
X61475626Y-125187415D01*
X61500488Y-125182965D01*
X61549306Y-125169364D01*
X61563503Y-125164159D01*
X61591102Y-125307285D01*
X61543914Y-125324649D01*
X61510746Y-125334152D01*
X61459455Y-125343311D01*
X61406962Y-125346316D01*
X61398883Y-125346364D01*
G37*
G36*
X62064872Y-124580098D02*
G01*
X62115800Y-124589275D01*
X62162245Y-124605059D01*
X62190718Y-124619253D01*
X62233270Y-124649235D01*
X62269334Y-124687278D01*
X62296245Y-124728411D01*
X62304047Y-124743572D01*
X62323528Y-124793392D01*
X62335492Y-124843126D01*
X62342419Y-124897989D01*
X62344347Y-124950202D01*
X62342882Y-124986106D01*
X62340439Y-125021032D01*
X61859036Y-125021032D01*
X61869424Y-125071455D01*
X61893724Y-125117376D01*
X61920830Y-125145596D01*
X61964003Y-125171322D01*
X62012317Y-125185442D01*
X62063182Y-125190605D01*
X62075436Y-125190781D01*
X62127107Y-125188631D01*
X62175694Y-125182179D01*
X62189009Y-125179546D01*
X62236575Y-125167639D01*
X62273272Y-125154389D01*
X62298674Y-125303377D01*
X62252434Y-125320533D01*
X62203564Y-125332731D01*
X62199267Y-125333663D01*
X62150794Y-125342146D01*
X62100416Y-125347107D01*
X62052965Y-125348562D01*
X61997637Y-125346166D01*
X61946844Y-125338978D01*
X61894347Y-125324896D01*
X61847773Y-125304555D01*
X61837055Y-125298492D01*
X61793095Y-125267449D01*
X61756014Y-125230649D01*
X61725810Y-125188091D01*
X61712002Y-125161960D01*
X61692285Y-125111606D01*
X61680176Y-125063960D01*
X61673166Y-125013596D01*
X61671214Y-124967299D01*
X61673598Y-124912722D01*
X61676456Y-124892561D01*
X61859769Y-124892561D01*
X62166538Y-124892561D01*
X62159632Y-124842647D01*
X62148953Y-124811472D01*
X62120958Y-124769272D01*
X62100837Y-124752121D01*
X62053706Y-124732601D01*
X62018283Y-124729406D01*
X61969078Y-124736024D01*
X61934019Y-124752854D01*
X61898623Y-124787296D01*
X61882972Y-124813182D01*
X61865551Y-124861477D01*
X61859769Y-124892561D01*
X61676456Y-124892561D01*
X61680751Y-124862259D01*
X61694764Y-124809625D01*
X61715006Y-124762364D01*
X61721039Y-124751388D01*
X61751346Y-124706036D01*
X61786212Y-124667522D01*
X61825638Y-124635848D01*
X61849511Y-124621207D01*
X61894563Y-124600073D01*
X61946207Y-124584703D01*
X61999521Y-124577872D01*
X62015840Y-124577487D01*
X62064872Y-124580098D01*
G37*
G36*
X63147173Y-125306552D02*
G01*
X63098916Y-125319394D01*
X63064375Y-125326824D01*
X63014427Y-125335373D01*
X62965161Y-125341612D01*
X62961793Y-125341967D01*
X62911472Y-125346175D01*
X62861257Y-125347806D01*
X62854570Y-125347829D01*
X62804560Y-125345632D01*
X62751326Y-125337740D01*
X62702276Y-125324108D01*
X62657407Y-125304737D01*
X62652093Y-125301912D01*
X62607767Y-125272816D01*
X62569584Y-125237460D01*
X62537545Y-125195845D01*
X62522400Y-125170020D01*
X62502632Y-125125171D01*
X62488511Y-125076353D01*
X62480039Y-125023566D01*
X62477259Y-124974122D01*
X62477215Y-124966810D01*
X62477504Y-124958995D01*
X62664061Y-124958995D01*
X62667221Y-125009656D01*
X62677776Y-125058570D01*
X62686531Y-125082337D01*
X62712281Y-125125904D01*
X62749566Y-125160899D01*
X62752233Y-125162693D01*
X62799616Y-125183942D01*
X62848289Y-125190915D01*
X62855792Y-125191025D01*
X62905571Y-125189239D01*
X62920027Y-125187850D01*
X62964724Y-125181256D01*
X62964724Y-124773859D01*
X62918910Y-124751802D01*
X62908060Y-124748213D01*
X62859573Y-124738090D01*
X62832833Y-124736734D01*
X62782534Y-124742553D01*
X62757117Y-124751632D01*
X62717251Y-124780242D01*
X62704605Y-124795352D01*
X62681034Y-124840648D01*
X62673831Y-124865205D01*
X62665931Y-124915197D01*
X62664061Y-124958995D01*
X62477504Y-124958995D01*
X62479073Y-124916516D01*
X62485748Y-124862787D01*
X62497277Y-124813056D01*
X62516050Y-124761891D01*
X62540756Y-124716366D01*
X62570910Y-124677063D01*
X62610805Y-124640689D01*
X62628646Y-124628290D01*
X62672375Y-124605385D01*
X62720858Y-124589976D01*
X62774093Y-124582064D01*
X62805722Y-124580907D01*
X62855109Y-124584078D01*
X62893649Y-124592142D01*
X62941669Y-124608776D01*
X62964724Y-124619253D01*
X62964724Y-124273405D01*
X63147173Y-124243607D01*
X63147173Y-125306552D01*
G37*
G36*
X63865980Y-124619253D02*
G01*
X63912513Y-124600304D01*
X63939741Y-124592142D01*
X63988531Y-124583057D01*
X64030111Y-124580907D01*
X64080547Y-124583899D01*
X64132325Y-124594417D01*
X64178847Y-124612509D01*
X64206943Y-124628778D01*
X64248459Y-124662419D01*
X64283250Y-124703501D01*
X64308810Y-124746838D01*
X64316120Y-124762623D01*
X64334302Y-124813145D01*
X64345468Y-124861914D01*
X64351933Y-124914315D01*
X64353733Y-124963147D01*
X64351559Y-125013144D01*
X64343751Y-125066591D01*
X64330264Y-125116100D01*
X64311099Y-125161670D01*
X64308304Y-125167090D01*
X64279678Y-125212515D01*
X64244908Y-125251797D01*
X64203995Y-125284935D01*
X64178611Y-125300690D01*
X64128508Y-125323477D01*
X64079430Y-125337472D01*
X64026078Y-125345574D01*
X63975889Y-125347829D01*
X63925811Y-125346541D01*
X63875411Y-125342677D01*
X63868667Y-125341967D01*
X63819351Y-125335842D01*
X63769586Y-125327416D01*
X63766573Y-125326824D01*
X63716659Y-125315602D01*
X63683286Y-125306552D01*
X63683286Y-124773859D01*
X63865980Y-124773859D01*
X63865980Y-125181256D01*
X63910432Y-125187850D01*
X63961321Y-125190914D01*
X63974668Y-125191025D01*
X64025044Y-125185602D01*
X64070822Y-125167756D01*
X64078960Y-125162693D01*
X64116451Y-125128438D01*
X64142504Y-125085566D01*
X64143928Y-125082337D01*
X64159289Y-125033003D01*
X64165850Y-124980746D01*
X64166399Y-124958995D01*
X64163956Y-124909291D01*
X64156629Y-124865205D01*
X64140028Y-124818570D01*
X64125854Y-124795352D01*
X64090234Y-124761114D01*
X64073342Y-124751632D01*
X64024017Y-124738189D01*
X63997627Y-124736734D01*
X63947703Y-124741677D01*
X63922644Y-124748213D01*
X63877307Y-124766852D01*
X63865980Y-124773859D01*
X63683286Y-124773859D01*
X63683286Y-124273405D01*
X63865980Y-124243607D01*
X63865980Y-124619253D01*
G37*
G36*
X64554012Y-125590118D02*
G01*
X64504871Y-125587259D01*
X64469748Y-125581081D01*
X64422602Y-125567937D01*
X64408688Y-125562519D01*
X64441172Y-125416217D01*
X64488180Y-125429629D01*
X64492951Y-125430628D01*
X64542754Y-125435737D01*
X64546196Y-125435757D01*
X64596603Y-125429176D01*
X64615317Y-125421835D01*
X64654285Y-125391370D01*
X64663433Y-125379581D01*
X64688462Y-125336394D01*
X64700314Y-125309239D01*
X64675004Y-125259413D01*
X64653008Y-125214413D01*
X64631153Y-125168105D01*
X64609438Y-125120487D01*
X64600174Y-125099678D01*
X64578848Y-125050144D01*
X64557825Y-124999207D01*
X64537107Y-124946867D01*
X64519590Y-124900889D01*
X64505163Y-124861786D01*
X64488259Y-124813904D01*
X64471801Y-124765146D01*
X64455790Y-124715512D01*
X64440225Y-124665003D01*
X64425107Y-124613617D01*
X64420167Y-124596294D01*
X64613852Y-124596294D01*
X64626329Y-124644461D01*
X64639564Y-124691642D01*
X64648046Y-124720369D01*
X64663479Y-124770722D01*
X64678350Y-124817481D01*
X64691032Y-124856168D01*
X64707047Y-124903458D01*
X64723524Y-124950286D01*
X64738904Y-124992456D01*
X64757554Y-125041411D01*
X64776136Y-125087894D01*
X64788485Y-125117508D01*
X64806155Y-125067763D01*
X64821731Y-125021197D01*
X64836998Y-124972932D01*
X64843684Y-124950935D01*
X64858623Y-124900771D01*
X64873214Y-124850299D01*
X64887457Y-124799517D01*
X64895219Y-124771172D01*
X64908866Y-124720506D01*
X64921778Y-124671000D01*
X64933956Y-124622653D01*
X64940404Y-124596294D01*
X65128227Y-124596294D01*
X65113452Y-124648366D01*
X65098437Y-124699803D01*
X65083181Y-124750605D01*
X65067685Y-124800771D01*
X65051949Y-124850302D01*
X65046650Y-124866671D01*
X65030650Y-124915237D01*
X65014341Y-124963116D01*
X64997723Y-125010309D01*
X64980796Y-125056814D01*
X64963560Y-125102632D01*
X64957745Y-125117752D01*
X64937151Y-125170271D01*
X64915971Y-125222251D01*
X64894208Y-125273694D01*
X64871860Y-125324599D01*
X64858827Y-125353447D01*
X64837221Y-125397743D01*
X64812806Y-125441297D01*
X64785454Y-125482318D01*
X64780425Y-125489002D01*
X64745505Y-125527150D01*
X64703029Y-125557684D01*
X64686636Y-125565938D01*
X64639061Y-125581594D01*
X64587490Y-125588961D01*
X64554012Y-125590118D01*
G37*
G36*
X65763014Y-125350027D02*
G01*
X65711125Y-125348057D01*
X65658727Y-125341245D01*
X65607481Y-125328131D01*
X65598883Y-125325115D01*
X65551874Y-125305915D01*
X65506927Y-125282213D01*
X65490928Y-125271625D01*
X65557850Y-125122882D01*
X65602904Y-125148178D01*
X65642114Y-125166357D01*
X65692123Y-125181195D01*
X65744219Y-125186121D01*
X65747871Y-125186140D01*
X65796848Y-125181919D01*
X65843468Y-125165707D01*
X65872191Y-125142909D01*
X65897335Y-125098070D01*
X65907953Y-125050356D01*
X65911025Y-124997585D01*
X65911025Y-124359867D01*
X66102023Y-124359867D01*
X66102023Y-125008332D01*
X66099705Y-125060266D01*
X66092750Y-125109457D01*
X66079583Y-125160896D01*
X66072714Y-125180523D01*
X66050055Y-125225860D01*
X66018714Y-125265092D01*
X65978690Y-125298217D01*
X65969644Y-125304110D01*
X65923477Y-125326306D01*
X65874591Y-125339938D01*
X65825754Y-125347158D01*
X65771261Y-125349983D01*
X65763014Y-125350027D01*
G37*
G36*
X66665430Y-124580098D02*
G01*
X66716358Y-124589275D01*
X66762803Y-124605059D01*
X66791277Y-124619253D01*
X66833828Y-124649235D01*
X66869892Y-124687278D01*
X66896803Y-124728411D01*
X66904605Y-124743572D01*
X66924086Y-124793392D01*
X66936050Y-124843126D01*
X66942977Y-124897989D01*
X66944905Y-124950202D01*
X66943440Y-124986106D01*
X66940997Y-125021032D01*
X66459595Y-125021032D01*
X66469982Y-125071455D01*
X66494282Y-125117376D01*
X66521388Y-125145596D01*
X66564561Y-125171322D01*
X66612876Y-125185442D01*
X66663741Y-125190605D01*
X66675994Y-125190781D01*
X66727666Y-125188631D01*
X66776252Y-125182179D01*
X66789567Y-125179546D01*
X66837133Y-125167639D01*
X66873831Y-125154389D01*
X66899232Y-125303377D01*
X66852993Y-125320533D01*
X66804122Y-125332731D01*
X66799825Y-125333663D01*
X66751352Y-125342146D01*
X66700974Y-125347107D01*
X66653524Y-125348562D01*
X66598195Y-125346166D01*
X66547402Y-125338978D01*
X66494905Y-125324896D01*
X66448331Y-125304555D01*
X66437613Y-125298492D01*
X66393653Y-125267449D01*
X66356572Y-125230649D01*
X66326368Y-125188091D01*
X66312561Y-125161960D01*
X66292843Y-125111606D01*
X66280734Y-125063960D01*
X66273724Y-125013596D01*
X66271772Y-124967299D01*
X66274156Y-124912722D01*
X66277014Y-124892561D01*
X66460327Y-124892561D01*
X66767096Y-124892561D01*
X66760190Y-124842647D01*
X66749511Y-124811472D01*
X66721516Y-124769272D01*
X66701395Y-124752121D01*
X66654264Y-124732601D01*
X66618841Y-124729406D01*
X66569636Y-124736024D01*
X66534577Y-124752854D01*
X66499181Y-124787296D01*
X66483531Y-124813182D01*
X66466109Y-124861477D01*
X66460327Y-124892561D01*
X66277014Y-124892561D01*
X66281309Y-124862259D01*
X66295322Y-124809625D01*
X66315564Y-124762364D01*
X66321598Y-124751388D01*
X66351904Y-124706036D01*
X66386770Y-124667522D01*
X66426196Y-124635848D01*
X66450069Y-124621207D01*
X66495121Y-124600073D01*
X66546765Y-124584703D01*
X66600079Y-124577872D01*
X66616399Y-124577487D01*
X66665430Y-124580098D01*
G37*
G36*
X67114410Y-125330000D02*
G01*
X67114410Y-124634152D01*
X67163450Y-124618190D01*
X67212108Y-124604955D01*
X67238729Y-124598492D01*
X67291385Y-124588758D01*
X67343210Y-124583415D01*
X67393075Y-124581462D01*
X67404570Y-124581395D01*
X67454615Y-124584203D01*
X67460502Y-124584815D01*
X67509452Y-124591499D01*
X67522784Y-124593852D01*
X67570583Y-124606503D01*
X67573098Y-124607529D01*
X67541591Y-124759204D01*
X67493752Y-124748004D01*
X67480286Y-124745282D01*
X67430349Y-124738775D01*
X67396999Y-124737711D01*
X67346910Y-124741264D01*
X67339602Y-124742351D01*
X67297103Y-124751388D01*
X67297103Y-125330000D01*
X67114410Y-125330000D01*
G37*
G36*
X67689846Y-125330000D02*
G01*
X67689846Y-124596294D01*
X67872540Y-124596294D01*
X67872540Y-125330000D01*
X67689846Y-125330000D01*
G37*
G36*
X67781681Y-124479790D02*
G01*
X67731953Y-124469285D01*
X67702791Y-124449993D01*
X67675056Y-124406654D01*
X67669574Y-124368171D01*
X67678949Y-124319550D01*
X67702791Y-124286838D01*
X67746745Y-124261755D01*
X67781681Y-124256796D01*
X67831323Y-124267387D01*
X67860327Y-124286838D01*
X67888266Y-124329886D01*
X67893789Y-124368171D01*
X67884345Y-124417052D01*
X67860327Y-124449993D01*
X67816577Y-124474872D01*
X67781681Y-124479790D01*
G37*
G36*
X68416468Y-125348562D02*
G01*
X68362067Y-125346143D01*
X68312130Y-125338885D01*
X68260526Y-125324665D01*
X68214753Y-125304126D01*
X68204221Y-125298004D01*
X68161048Y-125266686D01*
X68124675Y-125229611D01*
X68095102Y-125186778D01*
X68081612Y-125160495D01*
X68062485Y-125109769D01*
X68050738Y-125061631D01*
X68043938Y-125010622D01*
X68042044Y-124963635D01*
X68044807Y-124910833D01*
X68053096Y-124860626D01*
X68066911Y-124813014D01*
X68086252Y-124767997D01*
X68114152Y-124721554D01*
X68148119Y-124680868D01*
X68188152Y-124645939D01*
X68213014Y-124629023D01*
X68256459Y-124606476D01*
X68303995Y-124590371D01*
X68355621Y-124580708D01*
X68411339Y-124577487D01*
X68460734Y-124579498D01*
X68509921Y-124586113D01*
X68519295Y-124587990D01*
X68567166Y-124600324D01*
X68611130Y-124616810D01*
X68571807Y-124763600D01*
X68524912Y-124748167D01*
X68507815Y-124743817D01*
X68459482Y-124736470D01*
X68425994Y-124735268D01*
X68374510Y-124740175D01*
X68326416Y-124757139D01*
X68284586Y-124789793D01*
X68278227Y-124797306D01*
X68252209Y-124840206D01*
X68235828Y-124891358D01*
X68229324Y-124944452D01*
X68228890Y-124963635D01*
X68231672Y-125013678D01*
X68240965Y-125061768D01*
X68248674Y-125085024D01*
X68273138Y-125127675D01*
X68311775Y-125161693D01*
X68314619Y-125163426D01*
X68360668Y-125182126D01*
X68409142Y-125189819D01*
X68436496Y-125190781D01*
X68486641Y-125187854D01*
X68521249Y-125182477D01*
X68570784Y-125169692D01*
X68596475Y-125160006D01*
X68623586Y-125310460D01*
X68575952Y-125326947D01*
X68534926Y-125336838D01*
X68485445Y-125344853D01*
X68436233Y-125348276D01*
X68416468Y-125348562D01*
G37*
G36*
X68765491Y-125330000D02*
G01*
X68765491Y-124273405D01*
X68948185Y-124243607D01*
X68948185Y-124875708D01*
X68982558Y-124838793D01*
X69014375Y-124804389D01*
X69048996Y-124766531D01*
X69083496Y-124728674D01*
X69116774Y-124691549D01*
X69147732Y-124656378D01*
X69180393Y-124618582D01*
X69199267Y-124596294D01*
X69416154Y-124596294D01*
X69383400Y-124633073D01*
X69349953Y-124670198D01*
X69318946Y-124704249D01*
X69284460Y-124741695D01*
X69249512Y-124779140D01*
X69217341Y-124813182D01*
X69181454Y-124850401D01*
X69144990Y-124887506D01*
X69111339Y-124921137D01*
X69149300Y-124955525D01*
X69185554Y-124992396D01*
X69199755Y-125007843D01*
X69233667Y-125046621D01*
X69266892Y-125087115D01*
X69288660Y-125115066D01*
X69320304Y-125157427D01*
X69350026Y-125199513D01*
X69368771Y-125227418D01*
X69396644Y-125271095D01*
X69422423Y-125315066D01*
X69430565Y-125330000D01*
X69220516Y-125330000D01*
X69194367Y-125287902D01*
X69164645Y-125243675D01*
X69142847Y-125213007D01*
X69111205Y-125170627D01*
X69078409Y-125129458D01*
X69047592Y-125093084D01*
X69013256Y-125056019D01*
X68975995Y-125021048D01*
X68948185Y-124998562D01*
X68948185Y-125330000D01*
X68765491Y-125330000D01*
G37*
G36*
X69882170Y-125330000D02*
G01*
X69882170Y-124548422D01*
X69884883Y-124497180D01*
X69894908Y-124442845D01*
X69912318Y-124394378D01*
X69937116Y-124351777D01*
X69959351Y-124324940D01*
X69996764Y-124293249D01*
X70041470Y-124269342D01*
X70093468Y-124253218D01*
X70143844Y-124245593D01*
X70189916Y-124243607D01*
X70242012Y-124246076D01*
X70291784Y-124254151D01*
X70294696Y-124254842D01*
X70343735Y-124268600D01*
X70364549Y-124276580D01*
X70328890Y-124423614D01*
X70281395Y-124407656D01*
X70271493Y-124405540D01*
X70221118Y-124399261D01*
X70207013Y-124398946D01*
X70157238Y-124403823D01*
X70111170Y-124424139D01*
X70095394Y-124440223D01*
X70073480Y-124485199D01*
X70065340Y-124534336D01*
X70064863Y-124551353D01*
X70064863Y-124596294D01*
X70329867Y-124596294D01*
X70329867Y-124748702D01*
X70064863Y-124748702D01*
X70064863Y-125330000D01*
X69882170Y-125330000D01*
G37*
G36*
X70819070Y-124580495D02*
G01*
X70872116Y-124591067D01*
X70921415Y-124609251D01*
X70952198Y-124625603D01*
X70994498Y-124655702D01*
X71031272Y-124691866D01*
X71062521Y-124734098D01*
X71077494Y-124760181D01*
X71097370Y-124805137D01*
X71111566Y-124853787D01*
X71120084Y-124906131D01*
X71122879Y-124954963D01*
X71122923Y-124962170D01*
X71120796Y-125011441D01*
X71113156Y-125064373D01*
X71099959Y-125113702D01*
X71081206Y-125159429D01*
X71078471Y-125164891D01*
X71050842Y-125210768D01*
X71017686Y-125250578D01*
X70979005Y-125284321D01*
X70955129Y-125300446D01*
X70908454Y-125323823D01*
X70857181Y-125339550D01*
X70807744Y-125347106D01*
X70768283Y-125348806D01*
X70717312Y-125345784D01*
X70663656Y-125335158D01*
X70613903Y-125316881D01*
X70582903Y-125300446D01*
X70540622Y-125270073D01*
X70503905Y-125233633D01*
X70472753Y-125191127D01*
X70457850Y-125164891D01*
X70438295Y-125119615D01*
X70424328Y-125070736D01*
X70415947Y-125018254D01*
X70413197Y-124969377D01*
X70413154Y-124962170D01*
X70600000Y-124962170D01*
X70602782Y-125012098D01*
X70612074Y-125060219D01*
X70619783Y-125083558D01*
X70644269Y-125128927D01*
X70677669Y-125162937D01*
X70722028Y-125184854D01*
X70768039Y-125191025D01*
X70817437Y-125184003D01*
X70858653Y-125162937D01*
X70893273Y-125126477D01*
X70915806Y-125083314D01*
X70929663Y-125034761D01*
X70935583Y-124983481D01*
X70936078Y-124962170D01*
X70933227Y-124912310D01*
X70922695Y-124860999D01*
X70915806Y-124841270D01*
X70891503Y-124796268D01*
X70858653Y-124762868D01*
X70814589Y-124741332D01*
X70768039Y-124735268D01*
X70719190Y-124742229D01*
X70677669Y-124763112D01*
X70642477Y-124798985D01*
X70619783Y-124841514D01*
X70606259Y-124889492D01*
X70600482Y-124940741D01*
X70600000Y-124962170D01*
X70413154Y-124962170D01*
X70415339Y-124912946D01*
X70423189Y-124860182D01*
X70436749Y-124811142D01*
X70456017Y-124765828D01*
X70458827Y-124760425D01*
X70487301Y-124714922D01*
X70521338Y-124675409D01*
X70560940Y-124641884D01*
X70585345Y-124625847D01*
X70632638Y-124602470D01*
X70683293Y-124586744D01*
X70737310Y-124578668D01*
X70768771Y-124577487D01*
X70819070Y-124580495D01*
G37*
G36*
X71291939Y-125330000D02*
G01*
X71291939Y-124634152D01*
X71340980Y-124618190D01*
X71389638Y-124604955D01*
X71416259Y-124598492D01*
X71468914Y-124588758D01*
X71520739Y-124583415D01*
X71570604Y-124581462D01*
X71582100Y-124581395D01*
X71632145Y-124584203D01*
X71638032Y-124584815D01*
X71686982Y-124591499D01*
X71700314Y-124593852D01*
X71748113Y-124606503D01*
X71750628Y-124607529D01*
X71719120Y-124759204D01*
X71671282Y-124748004D01*
X71657815Y-124745282D01*
X71607879Y-124738775D01*
X71574528Y-124737711D01*
X71524440Y-124741264D01*
X71517131Y-124742351D01*
X71474633Y-124751388D01*
X71474633Y-125330000D01*
X71291939Y-125330000D01*
G37*
G36*
X72183914Y-125330000D02*
G01*
X72186466Y-125277767D01*
X72189204Y-125224506D01*
X72192129Y-125170216D01*
X72195241Y-125114898D01*
X72197103Y-125082826D01*
X72200498Y-125026417D01*
X72204056Y-124970032D01*
X72207777Y-124913671D01*
X72211663Y-124857332D01*
X72213956Y-124825150D01*
X72218182Y-124769209D01*
X72222525Y-124714226D01*
X72226984Y-124660202D01*
X72231561Y-124607136D01*
X72234228Y-124577243D01*
X72239165Y-124526102D01*
X72244360Y-124476972D01*
X72250611Y-124423284D01*
X72257198Y-124372222D01*
X72258897Y-124359867D01*
X72439881Y-124359867D01*
X72464544Y-124405169D01*
X72487050Y-124449168D01*
X72504361Y-124484431D01*
X72526782Y-124531171D01*
X72549775Y-124580105D01*
X72570958Y-124626022D01*
X72578122Y-124641723D01*
X72599615Y-124689179D01*
X72620953Y-124736752D01*
X72642136Y-124784440D01*
X72653838Y-124810983D01*
X72674512Y-124857768D01*
X72694221Y-124902775D01*
X72714986Y-124950698D01*
X72722958Y-124969253D01*
X72743223Y-124922207D01*
X72764632Y-124872968D01*
X72784880Y-124826776D01*
X72791835Y-124810983D01*
X72813031Y-124763231D01*
X72834304Y-124715594D01*
X72855655Y-124668073D01*
X72867550Y-124641723D01*
X72888907Y-124595213D01*
X72909839Y-124550481D01*
X72932599Y-124502863D01*
X72941556Y-124484431D01*
X72965374Y-124436653D01*
X72989382Y-124390457D01*
X73006036Y-124359867D01*
X73178227Y-124359867D01*
X73184898Y-124410273D01*
X73191233Y-124463304D01*
X73197232Y-124518961D01*
X73202206Y-124569814D01*
X73202896Y-124577243D01*
X73207622Y-124629761D01*
X73212185Y-124683238D01*
X73216585Y-124737673D01*
X73220821Y-124793066D01*
X73223168Y-124825150D01*
X73227146Y-124881474D01*
X73230962Y-124937823D01*
X73234613Y-124994194D01*
X73238101Y-125050589D01*
X73240020Y-125082826D01*
X73243335Y-125138732D01*
X73246438Y-125193609D01*
X73249332Y-125247458D01*
X73252015Y-125300278D01*
X73253454Y-125330000D01*
X73066608Y-125330000D01*
X73064807Y-125275991D01*
X73062822Y-125221189D01*
X73060655Y-125165594D01*
X73058608Y-125116296D01*
X73058304Y-125109204D01*
X73056192Y-125059269D01*
X73053916Y-125009053D01*
X73051477Y-124958557D01*
X73048874Y-124907780D01*
X73047313Y-124878639D01*
X73044443Y-124827760D01*
X73041175Y-124777279D01*
X73037510Y-124727195D01*
X73033448Y-124677509D01*
X73030949Y-124649295D01*
X73010860Y-124695029D01*
X72990377Y-124740757D01*
X72987229Y-124747725D01*
X72966265Y-124794577D01*
X72945983Y-124839972D01*
X72933740Y-124867404D01*
X72912594Y-124914779D01*
X72891654Y-124962017D01*
X72877808Y-124993433D01*
X72857807Y-125039228D01*
X72837302Y-125086360D01*
X72826762Y-125110669D01*
X72806322Y-125158204D01*
X72787438Y-125202993D01*
X72649441Y-125202993D01*
X72629306Y-125155269D01*
X72610118Y-125110669D01*
X72590224Y-125064927D01*
X72569040Y-125016605D01*
X72558827Y-124993433D01*
X72538173Y-124946286D01*
X72517245Y-124899002D01*
X72503140Y-124867404D01*
X72482303Y-124820807D01*
X72460660Y-124772652D01*
X72449406Y-124747725D01*
X72428583Y-124701235D01*
X72408219Y-124654631D01*
X72405931Y-124649295D01*
X72401987Y-124698754D01*
X72398278Y-124748611D01*
X72394801Y-124798865D01*
X72391559Y-124849517D01*
X72389811Y-124878639D01*
X72386924Y-124929576D01*
X72384248Y-124980232D01*
X72381782Y-125030608D01*
X72379526Y-125080704D01*
X72378332Y-125109204D01*
X72376348Y-125158588D01*
X72374196Y-125214283D01*
X72372165Y-125269184D01*
X72370257Y-125323292D01*
X72370027Y-125330000D01*
X72183914Y-125330000D01*
G37*
G36*
X73945197Y-124404767D02*
G01*
X73966039Y-124450134D01*
X73986671Y-124495968D01*
X74007092Y-124542271D01*
X74018667Y-124568939D01*
X74038958Y-124616209D01*
X74059225Y-124664415D01*
X74079470Y-124713555D01*
X74099690Y-124763631D01*
X74111235Y-124792665D01*
X74131689Y-124844491D01*
X74149464Y-124890103D01*
X74167461Y-124936814D01*
X74185682Y-124984625D01*
X74204126Y-125033534D01*
X74207222Y-125041793D01*
X74226087Y-125092260D01*
X74245313Y-125144375D01*
X74264899Y-125198139D01*
X74281496Y-125244202D01*
X74298344Y-125291409D01*
X74312002Y-125330000D01*
X74106838Y-125330000D01*
X74090770Y-125281560D01*
X74073766Y-125232840D01*
X74068736Y-125218869D01*
X74051446Y-125170069D01*
X74034623Y-125121550D01*
X74029902Y-125107739D01*
X73630809Y-125107739D01*
X73613739Y-125156178D01*
X73596294Y-125204898D01*
X73591242Y-125218869D01*
X73574231Y-125267669D01*
X73558250Y-125316188D01*
X73553872Y-125330000D01*
X73355303Y-125330000D01*
X73373526Y-125278819D01*
X73391436Y-125228837D01*
X73409033Y-125180053D01*
X73426317Y-125132468D01*
X73443288Y-125086081D01*
X73464061Y-125029782D01*
X73484346Y-124975356D01*
X73492231Y-124954354D01*
X73676727Y-124954354D01*
X73983007Y-124954354D01*
X73965593Y-124906566D01*
X73948523Y-124860290D01*
X73937334Y-124830279D01*
X73919756Y-124783268D01*
X73901457Y-124735797D01*
X73895080Y-124719637D01*
X73876880Y-124673820D01*
X73858199Y-124626824D01*
X73839854Y-124581243D01*
X73828890Y-124555017D01*
X73811133Y-124601761D01*
X73801535Y-124626824D01*
X73783235Y-124673820D01*
X73765143Y-124719637D01*
X73746937Y-124765939D01*
X73729194Y-124811864D01*
X73722156Y-124830279D01*
X73703818Y-124879388D01*
X73686748Y-124926294D01*
X73676727Y-124954354D01*
X73492231Y-124954354D01*
X73492323Y-124954110D01*
X73512102Y-124901959D01*
X73531750Y-124850989D01*
X73551267Y-124801199D01*
X73570653Y-124752590D01*
X73589907Y-124705162D01*
X73609030Y-124658915D01*
X73616643Y-124640746D01*
X73635832Y-124595700D01*
X73659142Y-124542210D01*
X73682761Y-124489339D01*
X73706689Y-124437087D01*
X73730926Y-124385452D01*
X73743161Y-124359867D01*
X73924145Y-124359867D01*
X73945197Y-124404767D01*
G37*
G36*
X74773320Y-124350567D02*
G01*
X74822119Y-124354173D01*
X74878663Y-124362062D01*
X74930258Y-124373708D01*
X74976904Y-124389110D01*
X75026346Y-124412552D01*
X75048394Y-124426301D01*
X75086743Y-124458303D01*
X75117156Y-124496609D01*
X75139636Y-124541216D01*
X75154182Y-124592127D01*
X75160794Y-124649340D01*
X75161235Y-124669811D01*
X75157968Y-124724537D01*
X75148168Y-124773920D01*
X75129333Y-124823089D01*
X75108967Y-124856657D01*
X75075897Y-124893957D01*
X75035216Y-124925075D01*
X74986922Y-124950011D01*
X74956803Y-124961193D01*
X74904169Y-124975512D01*
X74853706Y-124984684D01*
X74799129Y-124990725D01*
X74749075Y-124993410D01*
X74714026Y-124993921D01*
X74631472Y-124993921D01*
X74631472Y-125330000D01*
X74440230Y-125330000D01*
X74440230Y-124517892D01*
X74631472Y-124517892D01*
X74631472Y-124831011D01*
X74711584Y-124831011D01*
X74764695Y-124829309D01*
X74815855Y-124823567D01*
X74849581Y-124816601D01*
X74896586Y-124798530D01*
X74935066Y-124767020D01*
X74957554Y-124721723D01*
X74963858Y-124672516D01*
X74963886Y-124668590D01*
X74958136Y-124619897D01*
X74935693Y-124575225D01*
X74933845Y-124573091D01*
X74893290Y-124541586D01*
X74852023Y-124525952D01*
X74803724Y-124516769D01*
X74753517Y-124512847D01*
X74732833Y-124512519D01*
X74683064Y-124514015D01*
X74676413Y-124514473D01*
X74631472Y-124517892D01*
X74440230Y-124517892D01*
X74440230Y-124374766D01*
X74491864Y-124365492D01*
X74541730Y-124359043D01*
X74584333Y-124355226D01*
X74635346Y-124351889D01*
X74686322Y-124349828D01*
X74721353Y-124349364D01*
X74773320Y-124350567D01*
G37*
G36*
X75659433Y-124350567D02*
G01*
X75708232Y-124354173D01*
X75764776Y-124362062D01*
X75816371Y-124373708D01*
X75863017Y-124389110D01*
X75912459Y-124412552D01*
X75934508Y-124426301D01*
X75972856Y-124458303D01*
X76003270Y-124496609D01*
X76025749Y-124541216D01*
X76040295Y-124592127D01*
X76046907Y-124649340D01*
X76047348Y-124669811D01*
X76044081Y-124724537D01*
X76034281Y-124773920D01*
X76015446Y-124823089D01*
X75995080Y-124856657D01*
X75962010Y-124893957D01*
X75921329Y-124925075D01*
X75873035Y-124950011D01*
X75842916Y-124961193D01*
X75790282Y-124975512D01*
X75739819Y-124984684D01*
X75685242Y-124990725D01*
X75635188Y-124993410D01*
X75600139Y-124993921D01*
X75517585Y-124993921D01*
X75517585Y-125330000D01*
X75326343Y-125330000D01*
X75326343Y-124517892D01*
X75517585Y-124517892D01*
X75517585Y-124831011D01*
X75597697Y-124831011D01*
X75650808Y-124829309D01*
X75701968Y-124823567D01*
X75735694Y-124816601D01*
X75782699Y-124798530D01*
X75821179Y-124767020D01*
X75843667Y-124721723D01*
X75849971Y-124672516D01*
X75850000Y-124668590D01*
X75844249Y-124619897D01*
X75821806Y-124575225D01*
X75819958Y-124573091D01*
X75779403Y-124541586D01*
X75738136Y-124525952D01*
X75689837Y-124516769D01*
X75639630Y-124512847D01*
X75618946Y-124512519D01*
X75569177Y-124514015D01*
X75562526Y-124514473D01*
X75517585Y-124517892D01*
X75326343Y-124517892D01*
X75326343Y-124374766D01*
X75377977Y-124365492D01*
X75427843Y-124359043D01*
X75470446Y-124355226D01*
X75521459Y-124351889D01*
X75572435Y-124349828D01*
X75607466Y-124349364D01*
X75659433Y-124350567D01*
G37*
G36*
X77168463Y-124330334D02*
G01*
X77220577Y-124335523D01*
X77271031Y-124344171D01*
X77319826Y-124356280D01*
X77346964Y-124364752D01*
X77392683Y-124382049D01*
X77441757Y-124405710D01*
X77487442Y-124433523D01*
X77529738Y-124465489D01*
X77534787Y-124469776D01*
X77572736Y-124506321D01*
X77606228Y-124546835D01*
X77635262Y-124591318D01*
X77659839Y-124639769D01*
X77679501Y-124692007D01*
X77692096Y-124740670D01*
X77700391Y-124792091D01*
X77704385Y-124846270D01*
X77704780Y-124870334D01*
X77702980Y-124926489D01*
X77697580Y-124978693D01*
X77688581Y-125026947D01*
X77673888Y-125077258D01*
X77667166Y-125094794D01*
X77643789Y-125142836D01*
X77615698Y-125183923D01*
X77578956Y-125221418D01*
X77562630Y-125234012D01*
X77518562Y-125258999D01*
X77470009Y-125274732D01*
X77416972Y-125281210D01*
X77405826Y-125281395D01*
X77355566Y-125277102D01*
X77326692Y-125270404D01*
X77281449Y-125249404D01*
X77265387Y-125235966D01*
X77222285Y-125259428D01*
X77196266Y-125268695D01*
X77146008Y-125278687D01*
X77107850Y-125280662D01*
X77058464Y-125277706D01*
X77007307Y-125267488D01*
X76960061Y-125249972D01*
X76946650Y-125243293D01*
X76905692Y-125216159D01*
X76870744Y-125181775D01*
X76841807Y-125140139D01*
X76836741Y-125130942D01*
X76815875Y-125080748D01*
X76803703Y-125029618D01*
X76798139Y-124979434D01*
X76797173Y-124945806D01*
X76797203Y-124945317D01*
X76965212Y-124945317D01*
X76968298Y-124994658D01*
X76979380Y-125044178D01*
X76981332Y-125049853D01*
X77005770Y-125094152D01*
X77033112Y-125119951D01*
X77080184Y-125140292D01*
X77126413Y-125145108D01*
X77175890Y-125141497D01*
X77180390Y-125140711D01*
X77220202Y-125127766D01*
X77215073Y-125094061D01*
X77213607Y-125053761D01*
X77213607Y-124752609D01*
X77183077Y-124747725D01*
X77144242Y-124745526D01*
X77094775Y-124750067D01*
X77045858Y-124767947D01*
X77006978Y-124802923D01*
X76983199Y-124845645D01*
X76969291Y-124894889D01*
X76965212Y-124945317D01*
X76797203Y-124945317D01*
X76800322Y-124894537D01*
X76809770Y-124846243D01*
X76827654Y-124796073D01*
X76836985Y-124777034D01*
X76865478Y-124732998D01*
X76900889Y-124694926D01*
X76943216Y-124662817D01*
X76952512Y-124657110D01*
X76997613Y-124635386D01*
X77047738Y-124620772D01*
X77096510Y-124613750D01*
X77135694Y-124612170D01*
X77188021Y-124613844D01*
X77240365Y-124619488D01*
X77276378Y-124626336D01*
X77326146Y-124638704D01*
X77375015Y-124654226D01*
X77377494Y-124655157D01*
X77377494Y-125088199D01*
X77389329Y-125136432D01*
X77391905Y-125139246D01*
X77433182Y-125153168D01*
X77480446Y-125139327D01*
X77484717Y-125136315D01*
X77516631Y-125098569D01*
X77524284Y-125084047D01*
X77540814Y-125037945D01*
X77549930Y-124993433D01*
X77555465Y-124944838D01*
X77558069Y-124893684D01*
X77558478Y-124861053D01*
X77555521Y-124807506D01*
X77546648Y-124756773D01*
X77531860Y-124708855D01*
X77528192Y-124699609D01*
X77506616Y-124655344D01*
X77476766Y-124610896D01*
X77444070Y-124574346D01*
X77440509Y-124570893D01*
X77402332Y-124539003D01*
X77359241Y-124512026D01*
X77311237Y-124489963D01*
X77301046Y-124486140D01*
X77253126Y-124471736D01*
X77201690Y-124462046D01*
X77153017Y-124457390D01*
X77114689Y-124456343D01*
X77065453Y-124458429D01*
X77010659Y-124466138D01*
X76958717Y-124479527D01*
X76909627Y-124498596D01*
X76876308Y-124515694D01*
X76832914Y-124543961D01*
X76793775Y-124577043D01*
X76758890Y-124614940D01*
X76728259Y-124657652D01*
X76712665Y-124684221D01*
X76689444Y-124734078D01*
X76671926Y-124788119D01*
X76661451Y-124837770D01*
X76655165Y-124890495D01*
X76653070Y-124946294D01*
X76655191Y-125003850D01*
X76661554Y-125057818D01*
X76672158Y-125108196D01*
X76687004Y-125154984D01*
X76709686Y-125205035D01*
X76713398Y-125211786D01*
X76742224Y-125256076D01*
X76775702Y-125295341D01*
X76813831Y-125329580D01*
X76856612Y-125358793D01*
X76883147Y-125373230D01*
X76932795Y-125394453D01*
X76985996Y-125410463D01*
X77034425Y-125420037D01*
X77085464Y-125425782D01*
X77139113Y-125427697D01*
X77191595Y-125426426D01*
X77244109Y-125422181D01*
X77270516Y-125418660D01*
X77320830Y-125410631D01*
X77365526Y-125402051D01*
X77383845Y-125521730D01*
X77336214Y-125533734D01*
X77287685Y-125542981D01*
X77283461Y-125543712D01*
X77231220Y-125550856D01*
X77181340Y-125554508D01*
X77139113Y-125555436D01*
X77082312Y-125553741D01*
X77027101Y-125548657D01*
X76973479Y-125540184D01*
X76921447Y-125528321D01*
X76892428Y-125520020D01*
X76843526Y-125502668D01*
X76797266Y-125481599D01*
X76753647Y-125456813D01*
X76712669Y-125428311D01*
X76690439Y-125410355D01*
X76654115Y-125376014D01*
X76621437Y-125337747D01*
X76592405Y-125295552D01*
X76567020Y-125249430D01*
X76554152Y-125221311D01*
X76535118Y-125168748D01*
X76522524Y-125120308D01*
X76513365Y-125068742D01*
X76507641Y-125014051D01*
X76505351Y-124956234D01*
X76505303Y-124946294D01*
X76507080Y-124889774D01*
X76512413Y-124835984D01*
X76521300Y-124784925D01*
X76533742Y-124736596D01*
X76552751Y-124683664D01*
X76555861Y-124676406D01*
X76579782Y-124627602D01*
X76607092Y-124582492D01*
X76637792Y-124541076D01*
X76671880Y-124503352D01*
X76692882Y-124483454D01*
X76731772Y-124451439D01*
X76772790Y-124423140D01*
X76815935Y-124398558D01*
X76861207Y-124377693D01*
X76888032Y-124367438D01*
X76936110Y-124352307D01*
X76985030Y-124340891D01*
X77034792Y-124333193D01*
X77085395Y-124329211D01*
X77114689Y-124328604D01*
X77168463Y-124330334D01*
G37*
G36*
X78195952Y-125330000D02*
G01*
X78193510Y-125297027D01*
X78193510Y-125266008D01*
X78196485Y-125216798D01*
X78206770Y-125165927D01*
X78224401Y-125119062D01*
X78231123Y-125105785D01*
X78256668Y-125063071D01*
X78285982Y-125022551D01*
X78319065Y-124984226D01*
X78326133Y-124976824D01*
X78361959Y-124940393D01*
X78397689Y-124904677D01*
X78433324Y-124869677D01*
X78440439Y-124862763D01*
X78476178Y-124828168D01*
X78511601Y-124792986D01*
X78523482Y-124780942D01*
X78557065Y-124742657D01*
X78583077Y-124704494D01*
X78601635Y-124657408D01*
X78605303Y-124623405D01*
X78598894Y-124573539D01*
X78573409Y-124530537D01*
X78566468Y-124524731D01*
X78519761Y-124502052D01*
X78469504Y-124495666D01*
X78420533Y-124500307D01*
X78375715Y-124514228D01*
X78331880Y-124536579D01*
X78303663Y-124555994D01*
X78266028Y-124587672D01*
X78261653Y-124591898D01*
X78170307Y-124464891D01*
X78208531Y-124432407D01*
X78249467Y-124404171D01*
X78252372Y-124402365D01*
X78298307Y-124377761D01*
X78345150Y-124359154D01*
X78355687Y-124355715D01*
X78406697Y-124343360D01*
X78456241Y-124338082D01*
X78475854Y-124337641D01*
X78525005Y-124339430D01*
X78578334Y-124346299D01*
X78632758Y-124360825D01*
X78678792Y-124382363D01*
X78716434Y-124410914D01*
X78749880Y-124450832D01*
X78773770Y-124497559D01*
X78788104Y-124551094D01*
X78792807Y-124603522D01*
X78792882Y-124611437D01*
X78787936Y-124663598D01*
X78773098Y-124713836D01*
X78757711Y-124746259D01*
X78731308Y-124789248D01*
X78700461Y-124830564D01*
X78668562Y-124866671D01*
X78631389Y-124905166D01*
X78593755Y-124942737D01*
X78559141Y-124976092D01*
X78522622Y-125012087D01*
X78491974Y-125043503D01*
X78458025Y-125080444D01*
X78428471Y-125116531D01*
X78402045Y-125159801D01*
X78397208Y-125175882D01*
X78823168Y-125175882D01*
X78823168Y-125330000D01*
X78195952Y-125330000D01*
G37*
G36*
X79354718Y-124342243D02*
G01*
X79407526Y-124356051D01*
X79455423Y-124379063D01*
X79498408Y-124411280D01*
X79536481Y-124452702D01*
X79548080Y-124468555D01*
X79574185Y-124512227D01*
X79595865Y-124561420D01*
X79613121Y-124616135D01*
X79623740Y-124663882D01*
X79631527Y-124715164D01*
X79636482Y-124769979D01*
X79638606Y-124828328D01*
X79638695Y-124843468D01*
X79637279Y-124902872D01*
X79633031Y-124958720D01*
X79625952Y-125011011D01*
X79616041Y-125059745D01*
X79599670Y-125115661D01*
X79578875Y-125166019D01*
X79553655Y-125210820D01*
X79548080Y-125219113D01*
X79511644Y-125263604D01*
X79470297Y-125298889D01*
X79424038Y-125324970D01*
X79372867Y-125341845D01*
X79316784Y-125349516D01*
X79296999Y-125350027D01*
X79245525Y-125346349D01*
X79197836Y-125335312D01*
X79148712Y-125314101D01*
X79113817Y-125291165D01*
X79073616Y-125253804D01*
X79042586Y-125213458D01*
X79015982Y-125166396D01*
X78996336Y-125119706D01*
X78980443Y-125067920D01*
X78969927Y-125019680D01*
X78962279Y-124967885D01*
X78957499Y-124912535D01*
X78955707Y-124863695D01*
X78955547Y-124843468D01*
X79143126Y-124843468D01*
X79144246Y-124898017D01*
X79147608Y-124949281D01*
X79153972Y-125002390D01*
X79157292Y-125022498D01*
X79169340Y-125072781D01*
X79187750Y-125118617D01*
X79205163Y-125146817D01*
X79242251Y-125179250D01*
X79289857Y-125191826D01*
X79296999Y-125192002D01*
X79347020Y-125182074D01*
X79387480Y-125149597D01*
X79389567Y-125146817D01*
X79414985Y-125100662D01*
X79430968Y-125050905D01*
X79436950Y-125022498D01*
X79444420Y-124971011D01*
X79448778Y-124921206D01*
X79450895Y-124868117D01*
X79451116Y-124843468D01*
X79449995Y-124788859D01*
X79446634Y-124737689D01*
X79440270Y-124684866D01*
X79436950Y-124664926D01*
X79424960Y-124614811D01*
X79406744Y-124569158D01*
X79389567Y-124541095D01*
X79352805Y-124508487D01*
X79304344Y-124495843D01*
X79296999Y-124495666D01*
X79247990Y-124505648D01*
X79207309Y-124538300D01*
X79205163Y-124541095D01*
X79179411Y-124587037D01*
X79163291Y-124636610D01*
X79157292Y-124664926D01*
X79149821Y-124716050D01*
X79145464Y-124765692D01*
X79143347Y-124818773D01*
X79143126Y-124843468D01*
X78955547Y-124843468D01*
X78956567Y-124793857D01*
X78960482Y-124737552D01*
X78967335Y-124684766D01*
X78977123Y-124635502D01*
X78992255Y-124582476D01*
X78997313Y-124568206D01*
X79017257Y-124521421D01*
X79044142Y-124474279D01*
X79075394Y-124433883D01*
X79111011Y-124400235D01*
X79115771Y-124396503D01*
X79161112Y-124368049D01*
X79210859Y-124348907D01*
X79265011Y-124339078D01*
X79296999Y-124337641D01*
X79354718Y-124342243D01*
G37*
G36*
X79774738Y-125330000D02*
G01*
X79772295Y-125297027D01*
X79772295Y-125266008D01*
X79775271Y-125216798D01*
X79785556Y-125165927D01*
X79803187Y-125119062D01*
X79809909Y-125105785D01*
X79835454Y-125063071D01*
X79864768Y-125022551D01*
X79897851Y-124984226D01*
X79904919Y-124976824D01*
X79940745Y-124940393D01*
X79976475Y-124904677D01*
X80012109Y-124869677D01*
X80019225Y-124862763D01*
X80054964Y-124828168D01*
X80090387Y-124792986D01*
X80102267Y-124780942D01*
X80135851Y-124742657D01*
X80161863Y-124704494D01*
X80180421Y-124657408D01*
X80184089Y-124623405D01*
X80177680Y-124573539D01*
X80152194Y-124530537D01*
X80145254Y-124524731D01*
X80098547Y-124502052D01*
X80048290Y-124495666D01*
X79999319Y-124500307D01*
X79954501Y-124514228D01*
X79910666Y-124536579D01*
X79882449Y-124555994D01*
X79844814Y-124587672D01*
X79840439Y-124591898D01*
X79749092Y-124464891D01*
X79787316Y-124432407D01*
X79828253Y-124404171D01*
X79831158Y-124402365D01*
X79877093Y-124377761D01*
X79923936Y-124359154D01*
X79934473Y-124355715D01*
X79985483Y-124343360D01*
X80035027Y-124338082D01*
X80054640Y-124337641D01*
X80103790Y-124339430D01*
X80157119Y-124346299D01*
X80211544Y-124360825D01*
X80257578Y-124382363D01*
X80295219Y-124410914D01*
X80328665Y-124450832D01*
X80352555Y-124497559D01*
X80366889Y-124551094D01*
X80371593Y-124603522D01*
X80371667Y-124611437D01*
X80366721Y-124663598D01*
X80351884Y-124713836D01*
X80336496Y-124746259D01*
X80310094Y-124789248D01*
X80279247Y-124830564D01*
X80247348Y-124866671D01*
X80210175Y-124905166D01*
X80172541Y-124942737D01*
X80137927Y-124976092D01*
X80101408Y-125012087D01*
X80070760Y-125043503D01*
X80036810Y-125080444D01*
X80007257Y-125116531D01*
X79980831Y-125159801D01*
X79975994Y-125175882D01*
X80401953Y-125175882D01*
X80401953Y-125330000D01*
X79774738Y-125330000D01*
G37*
G36*
X81118318Y-124953377D02*
G01*
X81225785Y-124953377D01*
X81225785Y-125102854D01*
X81118318Y-125102854D01*
X81118318Y-125330000D01*
X80939532Y-125330000D01*
X80939532Y-125102854D01*
X80516503Y-125102854D01*
X80516503Y-124971695D01*
X80525504Y-124953377D01*
X80691870Y-124953377D01*
X80939532Y-124953377D01*
X80939532Y-124580662D01*
X80907292Y-124620840D01*
X80875736Y-124661391D01*
X80873586Y-124664193D01*
X80843687Y-124704218D01*
X80814254Y-124745645D01*
X80805931Y-124757739D01*
X80777614Y-124800194D01*
X80750793Y-124842930D01*
X80743405Y-124855191D01*
X80719115Y-124898148D01*
X80696099Y-124944172D01*
X80691870Y-124953377D01*
X80525504Y-124953377D01*
X80538616Y-124926693D01*
X80562124Y-124882577D01*
X80588877Y-124835408D01*
X80591730Y-124830523D01*
X80618546Y-124785977D01*
X80647063Y-124740543D01*
X80673838Y-124699411D01*
X80694801Y-124668101D01*
X80723789Y-124626244D01*
X80753602Y-124584937D01*
X80784239Y-124544179D01*
X80815701Y-124503970D01*
X80847605Y-124465013D01*
X80879570Y-124428011D01*
X80915604Y-124388718D01*
X80943684Y-124359867D01*
X81118318Y-124359867D01*
X81118318Y-124953377D01*
G37*
D11*
X81666666Y-113404819D02*
X81333333Y-112928628D01*
X81095238Y-113404819D02*
X81095238Y-112404819D01*
X81095238Y-112404819D02*
X81476190Y-112404819D01*
X81476190Y-112404819D02*
X81571428Y-112452438D01*
X81571428Y-112452438D02*
X81619047Y-112500057D01*
X81619047Y-112500057D02*
X81666666Y-112595295D01*
X81666666Y-112595295D02*
X81666666Y-112738152D01*
X81666666Y-112738152D02*
X81619047Y-112833390D01*
X81619047Y-112833390D02*
X81571428Y-112881009D01*
X81571428Y-112881009D02*
X81476190Y-112928628D01*
X81476190Y-112928628D02*
X81095238Y-112928628D01*
X82095238Y-112881009D02*
X82428571Y-112881009D01*
X82571428Y-113404819D02*
X82095238Y-113404819D01*
X82095238Y-113404819D02*
X82095238Y-112404819D01*
X82095238Y-112404819D02*
X82571428Y-112404819D01*
X83333333Y-112881009D02*
X83000000Y-112881009D01*
X83000000Y-113404819D02*
X83000000Y-112404819D01*
X83000000Y-112404819D02*
X83476190Y-112404819D01*
X84000000Y-112404819D02*
X84000000Y-112642914D01*
X83761905Y-112547676D02*
X84000000Y-112642914D01*
X84000000Y-112642914D02*
X84238095Y-112547676D01*
X83857143Y-112833390D02*
X84000000Y-112642914D01*
X84000000Y-112642914D02*
X84142857Y-112833390D01*
X84761905Y-112404819D02*
X84761905Y-112642914D01*
X84523810Y-112547676D02*
X84761905Y-112642914D01*
X84761905Y-112642914D02*
X85000000Y-112547676D01*
X84619048Y-112833390D02*
X84761905Y-112642914D01*
X84761905Y-112642914D02*
X84904762Y-112833390D01*
X55666666Y-41654819D02*
X55333333Y-41178628D01*
X55095238Y-41654819D02*
X55095238Y-40654819D01*
X55095238Y-40654819D02*
X55476190Y-40654819D01*
X55476190Y-40654819D02*
X55571428Y-40702438D01*
X55571428Y-40702438D02*
X55619047Y-40750057D01*
X55619047Y-40750057D02*
X55666666Y-40845295D01*
X55666666Y-40845295D02*
X55666666Y-40988152D01*
X55666666Y-40988152D02*
X55619047Y-41083390D01*
X55619047Y-41083390D02*
X55571428Y-41131009D01*
X55571428Y-41131009D02*
X55476190Y-41178628D01*
X55476190Y-41178628D02*
X55095238Y-41178628D01*
X56095238Y-41131009D02*
X56428571Y-41131009D01*
X56571428Y-41654819D02*
X56095238Y-41654819D01*
X56095238Y-41654819D02*
X56095238Y-40654819D01*
X56095238Y-40654819D02*
X56571428Y-40654819D01*
X57333333Y-41131009D02*
X57000000Y-41131009D01*
X57000000Y-41654819D02*
X57000000Y-40654819D01*
X57000000Y-40654819D02*
X57476190Y-40654819D01*
X58000000Y-40654819D02*
X58000000Y-40892914D01*
X57761905Y-40797676D02*
X58000000Y-40892914D01*
X58000000Y-40892914D02*
X58238095Y-40797676D01*
X57857143Y-41083390D02*
X58000000Y-40892914D01*
X58000000Y-40892914D02*
X58142857Y-41083390D01*
X58761905Y-40654819D02*
X58761905Y-40892914D01*
X58523810Y-40797676D02*
X58761905Y-40892914D01*
X58761905Y-40892914D02*
X59000000Y-40797676D01*
X58619048Y-41083390D02*
X58761905Y-40892914D01*
X58761905Y-40892914D02*
X58904762Y-41083390D01*
X132924819Y-74318094D02*
X131924819Y-74318094D01*
X131924819Y-74318094D02*
X131924819Y-74079999D01*
X131924819Y-74079999D02*
X131972438Y-73937142D01*
X131972438Y-73937142D02*
X132067676Y-73841904D01*
X132067676Y-73841904D02*
X132162914Y-73794285D01*
X132162914Y-73794285D02*
X132353390Y-73746666D01*
X132353390Y-73746666D02*
X132496247Y-73746666D01*
X132496247Y-73746666D02*
X132686723Y-73794285D01*
X132686723Y-73794285D02*
X132781961Y-73841904D01*
X132781961Y-73841904D02*
X132877200Y-73937142D01*
X132877200Y-73937142D02*
X132924819Y-74079999D01*
X132924819Y-74079999D02*
X132924819Y-74318094D01*
X132020057Y-73365713D02*
X131972438Y-73318094D01*
X131972438Y-73318094D02*
X131924819Y-73222856D01*
X131924819Y-73222856D02*
X131924819Y-72984761D01*
X131924819Y-72984761D02*
X131972438Y-72889523D01*
X131972438Y-72889523D02*
X132020057Y-72841904D01*
X132020057Y-72841904D02*
X132115295Y-72794285D01*
X132115295Y-72794285D02*
X132210533Y-72794285D01*
X132210533Y-72794285D02*
X132353390Y-72841904D01*
X132353390Y-72841904D02*
X132924819Y-73413332D01*
X132924819Y-73413332D02*
X132924819Y-72794285D01*
X132354819Y-68761904D02*
X131354819Y-68761904D01*
X132354819Y-68190476D02*
X131783390Y-68619047D01*
X131354819Y-68190476D02*
X131926247Y-68761904D01*
X132924819Y-93738094D02*
X131924819Y-93738094D01*
X131924819Y-93738094D02*
X131924819Y-93499999D01*
X131924819Y-93499999D02*
X131972438Y-93357142D01*
X131972438Y-93357142D02*
X132067676Y-93261904D01*
X132067676Y-93261904D02*
X132162914Y-93214285D01*
X132162914Y-93214285D02*
X132353390Y-93166666D01*
X132353390Y-93166666D02*
X132496247Y-93166666D01*
X132496247Y-93166666D02*
X132686723Y-93214285D01*
X132686723Y-93214285D02*
X132781961Y-93261904D01*
X132781961Y-93261904D02*
X132877200Y-93357142D01*
X132877200Y-93357142D02*
X132924819Y-93499999D01*
X132924819Y-93499999D02*
X132924819Y-93738094D01*
X132924819Y-92214285D02*
X132924819Y-92785713D01*
X132924819Y-92499999D02*
X131924819Y-92499999D01*
X131924819Y-92499999D02*
X132067676Y-92595237D01*
X132067676Y-92595237D02*
X132162914Y-92690475D01*
X132162914Y-92690475D02*
X132210533Y-92785713D01*
X132354819Y-88181904D02*
X131354819Y-88181904D01*
X132354819Y-87610476D02*
X131783390Y-88039047D01*
X131354819Y-87610476D02*
X131926247Y-88181904D01*
X148511905Y-44204819D02*
X148511905Y-43204819D01*
X148511905Y-43204819D02*
X148845238Y-43919104D01*
X148845238Y-43919104D02*
X149178571Y-43204819D01*
X149178571Y-43204819D02*
X149178571Y-44204819D01*
X149845238Y-43204819D02*
X150035714Y-43204819D01*
X150035714Y-43204819D02*
X150130952Y-43252438D01*
X150130952Y-43252438D02*
X150226190Y-43347676D01*
X150226190Y-43347676D02*
X150273809Y-43538152D01*
X150273809Y-43538152D02*
X150273809Y-43871485D01*
X150273809Y-43871485D02*
X150226190Y-44061961D01*
X150226190Y-44061961D02*
X150130952Y-44157200D01*
X150130952Y-44157200D02*
X150035714Y-44204819D01*
X150035714Y-44204819D02*
X149845238Y-44204819D01*
X149845238Y-44204819D02*
X149750000Y-44157200D01*
X149750000Y-44157200D02*
X149654762Y-44061961D01*
X149654762Y-44061961D02*
X149607143Y-43871485D01*
X149607143Y-43871485D02*
X149607143Y-43538152D01*
X149607143Y-43538152D02*
X149654762Y-43347676D01*
X149654762Y-43347676D02*
X149750000Y-43252438D01*
X149750000Y-43252438D02*
X149845238Y-43204819D01*
X150559524Y-43204819D02*
X151130952Y-43204819D01*
X150845238Y-44204819D02*
X150845238Y-43204819D01*
X151654762Y-43204819D02*
X151845238Y-43204819D01*
X151845238Y-43204819D02*
X151940476Y-43252438D01*
X151940476Y-43252438D02*
X152035714Y-43347676D01*
X152035714Y-43347676D02*
X152083333Y-43538152D01*
X152083333Y-43538152D02*
X152083333Y-43871485D01*
X152083333Y-43871485D02*
X152035714Y-44061961D01*
X152035714Y-44061961D02*
X151940476Y-44157200D01*
X151940476Y-44157200D02*
X151845238Y-44204819D01*
X151845238Y-44204819D02*
X151654762Y-44204819D01*
X151654762Y-44204819D02*
X151559524Y-44157200D01*
X151559524Y-44157200D02*
X151464286Y-44061961D01*
X151464286Y-44061961D02*
X151416667Y-43871485D01*
X151416667Y-43871485D02*
X151416667Y-43538152D01*
X151416667Y-43538152D02*
X151464286Y-43347676D01*
X151464286Y-43347676D02*
X151559524Y-43252438D01*
X151559524Y-43252438D02*
X151654762Y-43204819D01*
X153083333Y-44204819D02*
X152750000Y-43728628D01*
X152511905Y-44204819D02*
X152511905Y-43204819D01*
X152511905Y-43204819D02*
X152892857Y-43204819D01*
X152892857Y-43204819D02*
X152988095Y-43252438D01*
X152988095Y-43252438D02*
X153035714Y-43300057D01*
X153035714Y-43300057D02*
X153083333Y-43395295D01*
X153083333Y-43395295D02*
X153083333Y-43538152D01*
X153083333Y-43538152D02*
X153035714Y-43633390D01*
X153035714Y-43633390D02*
X152988095Y-43681009D01*
X152988095Y-43681009D02*
X152892857Y-43728628D01*
X152892857Y-43728628D02*
X152511905Y-43728628D01*
X153464286Y-43300057D02*
X153511905Y-43252438D01*
X153511905Y-43252438D02*
X153607143Y-43204819D01*
X153607143Y-43204819D02*
X153845238Y-43204819D01*
X153845238Y-43204819D02*
X153940476Y-43252438D01*
X153940476Y-43252438D02*
X153988095Y-43300057D01*
X153988095Y-43300057D02*
X154035714Y-43395295D01*
X154035714Y-43395295D02*
X154035714Y-43490533D01*
X154035714Y-43490533D02*
X153988095Y-43633390D01*
X153988095Y-43633390D02*
X153416667Y-44204819D01*
X153416667Y-44204819D02*
X154035714Y-44204819D01*
X158204819Y-52488094D02*
X157204819Y-52488094D01*
X157204819Y-52488094D02*
X157919104Y-52154761D01*
X157919104Y-52154761D02*
X157204819Y-51821428D01*
X157204819Y-51821428D02*
X158204819Y-51821428D01*
X157204819Y-51154761D02*
X157204819Y-50964285D01*
X157204819Y-50964285D02*
X157252438Y-50869047D01*
X157252438Y-50869047D02*
X157347676Y-50773809D01*
X157347676Y-50773809D02*
X157538152Y-50726190D01*
X157538152Y-50726190D02*
X157871485Y-50726190D01*
X157871485Y-50726190D02*
X158061961Y-50773809D01*
X158061961Y-50773809D02*
X158157200Y-50869047D01*
X158157200Y-50869047D02*
X158204819Y-50964285D01*
X158204819Y-50964285D02*
X158204819Y-51154761D01*
X158204819Y-51154761D02*
X158157200Y-51249999D01*
X158157200Y-51249999D02*
X158061961Y-51345237D01*
X158061961Y-51345237D02*
X157871485Y-51392856D01*
X157871485Y-51392856D02*
X157538152Y-51392856D01*
X157538152Y-51392856D02*
X157347676Y-51345237D01*
X157347676Y-51345237D02*
X157252438Y-51249999D01*
X157252438Y-51249999D02*
X157204819Y-51154761D01*
X157204819Y-50440475D02*
X157204819Y-49869047D01*
X158204819Y-50154761D02*
X157204819Y-50154761D01*
X157204819Y-49345237D02*
X157204819Y-49154761D01*
X157204819Y-49154761D02*
X157252438Y-49059523D01*
X157252438Y-49059523D02*
X157347676Y-48964285D01*
X157347676Y-48964285D02*
X157538152Y-48916666D01*
X157538152Y-48916666D02*
X157871485Y-48916666D01*
X157871485Y-48916666D02*
X158061961Y-48964285D01*
X158061961Y-48964285D02*
X158157200Y-49059523D01*
X158157200Y-49059523D02*
X158204819Y-49154761D01*
X158204819Y-49154761D02*
X158204819Y-49345237D01*
X158204819Y-49345237D02*
X158157200Y-49440475D01*
X158157200Y-49440475D02*
X158061961Y-49535713D01*
X158061961Y-49535713D02*
X157871485Y-49583332D01*
X157871485Y-49583332D02*
X157538152Y-49583332D01*
X157538152Y-49583332D02*
X157347676Y-49535713D01*
X157347676Y-49535713D02*
X157252438Y-49440475D01*
X157252438Y-49440475D02*
X157204819Y-49345237D01*
X158204819Y-47916666D02*
X157728628Y-48249999D01*
X158204819Y-48488094D02*
X157204819Y-48488094D01*
X157204819Y-48488094D02*
X157204819Y-48107142D01*
X157204819Y-48107142D02*
X157252438Y-48011904D01*
X157252438Y-48011904D02*
X157300057Y-47964285D01*
X157300057Y-47964285D02*
X157395295Y-47916666D01*
X157395295Y-47916666D02*
X157538152Y-47916666D01*
X157538152Y-47916666D02*
X157633390Y-47964285D01*
X157633390Y-47964285D02*
X157681009Y-48011904D01*
X157681009Y-48011904D02*
X157728628Y-48107142D01*
X157728628Y-48107142D02*
X157728628Y-48488094D01*
X158204819Y-46964285D02*
X158204819Y-47535713D01*
X158204819Y-47249999D02*
X157204819Y-47249999D01*
X157204819Y-47249999D02*
X157347676Y-47345237D01*
X157347676Y-47345237D02*
X157442914Y-47440475D01*
X157442914Y-47440475D02*
X157490533Y-47535713D01*
X158204819Y-87916666D02*
X157728628Y-88249999D01*
X158204819Y-88488094D02*
X157204819Y-88488094D01*
X157204819Y-88488094D02*
X157204819Y-88107142D01*
X157204819Y-88107142D02*
X157252438Y-88011904D01*
X157252438Y-88011904D02*
X157300057Y-87964285D01*
X157300057Y-87964285D02*
X157395295Y-87916666D01*
X157395295Y-87916666D02*
X157538152Y-87916666D01*
X157538152Y-87916666D02*
X157633390Y-87964285D01*
X157633390Y-87964285D02*
X157681009Y-88011904D01*
X157681009Y-88011904D02*
X157728628Y-88107142D01*
X157728628Y-88107142D02*
X157728628Y-88488094D01*
X157252438Y-86964285D02*
X157204819Y-87059523D01*
X157204819Y-87059523D02*
X157204819Y-87202380D01*
X157204819Y-87202380D02*
X157252438Y-87345237D01*
X157252438Y-87345237D02*
X157347676Y-87440475D01*
X157347676Y-87440475D02*
X157442914Y-87488094D01*
X157442914Y-87488094D02*
X157633390Y-87535713D01*
X157633390Y-87535713D02*
X157776247Y-87535713D01*
X157776247Y-87535713D02*
X157966723Y-87488094D01*
X157966723Y-87488094D02*
X158061961Y-87440475D01*
X158061961Y-87440475D02*
X158157200Y-87345237D01*
X158157200Y-87345237D02*
X158204819Y-87202380D01*
X158204819Y-87202380D02*
X158204819Y-87107142D01*
X158204819Y-87107142D02*
X158157200Y-86964285D01*
X158157200Y-86964285D02*
X158109580Y-86916666D01*
X158109580Y-86916666D02*
X157776247Y-86916666D01*
X157776247Y-86916666D02*
X157776247Y-87107142D01*
X157681009Y-86154761D02*
X157728628Y-86011904D01*
X157728628Y-86011904D02*
X157776247Y-85964285D01*
X157776247Y-85964285D02*
X157871485Y-85916666D01*
X157871485Y-85916666D02*
X158014342Y-85916666D01*
X158014342Y-85916666D02*
X158109580Y-85964285D01*
X158109580Y-85964285D02*
X158157200Y-86011904D01*
X158157200Y-86011904D02*
X158204819Y-86107142D01*
X158204819Y-86107142D02*
X158204819Y-86488094D01*
X158204819Y-86488094D02*
X157204819Y-86488094D01*
X157204819Y-86488094D02*
X157204819Y-86154761D01*
X157204819Y-86154761D02*
X157252438Y-86059523D01*
X157252438Y-86059523D02*
X157300057Y-86011904D01*
X157300057Y-86011904D02*
X157395295Y-85964285D01*
X157395295Y-85964285D02*
X157490533Y-85964285D01*
X157490533Y-85964285D02*
X157585771Y-86011904D01*
X157585771Y-86011904D02*
X157633390Y-86059523D01*
X157633390Y-86059523D02*
X157681009Y-86154761D01*
X157681009Y-86154761D02*
X157681009Y-86488094D01*
X158204819Y-84964285D02*
X158204819Y-85535713D01*
X158204819Y-85249999D02*
X157204819Y-85249999D01*
X157204819Y-85249999D02*
X157347676Y-85345237D01*
X157347676Y-85345237D02*
X157442914Y-85440475D01*
X157442914Y-85440475D02*
X157490533Y-85535713D01*
X127404761Y-86750057D02*
X127309523Y-86702438D01*
X127309523Y-86702438D02*
X127214285Y-86607200D01*
X127214285Y-86607200D02*
X127071428Y-86464342D01*
X127071428Y-86464342D02*
X126976190Y-86416723D01*
X126976190Y-86416723D02*
X126880952Y-86416723D01*
X126928571Y-86654819D02*
X126833333Y-86607200D01*
X126833333Y-86607200D02*
X126738095Y-86511961D01*
X126738095Y-86511961D02*
X126690476Y-86321485D01*
X126690476Y-86321485D02*
X126690476Y-85988152D01*
X126690476Y-85988152D02*
X126738095Y-85797676D01*
X126738095Y-85797676D02*
X126833333Y-85702438D01*
X126833333Y-85702438D02*
X126928571Y-85654819D01*
X126928571Y-85654819D02*
X127119047Y-85654819D01*
X127119047Y-85654819D02*
X127214285Y-85702438D01*
X127214285Y-85702438D02*
X127309523Y-85797676D01*
X127309523Y-85797676D02*
X127357142Y-85988152D01*
X127357142Y-85988152D02*
X127357142Y-86321485D01*
X127357142Y-86321485D02*
X127309523Y-86511961D01*
X127309523Y-86511961D02*
X127214285Y-86607200D01*
X127214285Y-86607200D02*
X127119047Y-86654819D01*
X127119047Y-86654819D02*
X126928571Y-86654819D01*
X127738095Y-85750057D02*
X127785714Y-85702438D01*
X127785714Y-85702438D02*
X127880952Y-85654819D01*
X127880952Y-85654819D02*
X128119047Y-85654819D01*
X128119047Y-85654819D02*
X128214285Y-85702438D01*
X128214285Y-85702438D02*
X128261904Y-85750057D01*
X128261904Y-85750057D02*
X128309523Y-85845295D01*
X128309523Y-85845295D02*
X128309523Y-85940533D01*
X128309523Y-85940533D02*
X128261904Y-86083390D01*
X128261904Y-86083390D02*
X127690476Y-86654819D01*
X127690476Y-86654819D02*
X128309523Y-86654819D01*
X127571429Y-126454819D02*
X127571429Y-125454819D01*
X127571429Y-125454819D02*
X127904762Y-126169104D01*
X127904762Y-126169104D02*
X128238095Y-125454819D01*
X128238095Y-125454819D02*
X128238095Y-126454819D01*
X128904762Y-125454819D02*
X129095238Y-125454819D01*
X129095238Y-125454819D02*
X129190476Y-125502438D01*
X129190476Y-125502438D02*
X129285714Y-125597676D01*
X129285714Y-125597676D02*
X129333333Y-125788152D01*
X129333333Y-125788152D02*
X129333333Y-126121485D01*
X129333333Y-126121485D02*
X129285714Y-126311961D01*
X129285714Y-126311961D02*
X129190476Y-126407200D01*
X129190476Y-126407200D02*
X129095238Y-126454819D01*
X129095238Y-126454819D02*
X128904762Y-126454819D01*
X128904762Y-126454819D02*
X128809524Y-126407200D01*
X128809524Y-126407200D02*
X128714286Y-126311961D01*
X128714286Y-126311961D02*
X128666667Y-126121485D01*
X128666667Y-126121485D02*
X128666667Y-125788152D01*
X128666667Y-125788152D02*
X128714286Y-125597676D01*
X128714286Y-125597676D02*
X128809524Y-125502438D01*
X128809524Y-125502438D02*
X128904762Y-125454819D01*
X129761905Y-126454819D02*
X129761905Y-125454819D01*
X130190476Y-126407200D02*
X130333333Y-126454819D01*
X130333333Y-126454819D02*
X130571428Y-126454819D01*
X130571428Y-126454819D02*
X130666666Y-126407200D01*
X130666666Y-126407200D02*
X130714285Y-126359580D01*
X130714285Y-126359580D02*
X130761904Y-126264342D01*
X130761904Y-126264342D02*
X130761904Y-126169104D01*
X130761904Y-126169104D02*
X130714285Y-126073866D01*
X130714285Y-126073866D02*
X130666666Y-126026247D01*
X130666666Y-126026247D02*
X130571428Y-125978628D01*
X130571428Y-125978628D02*
X130380952Y-125931009D01*
X130380952Y-125931009D02*
X130285714Y-125883390D01*
X130285714Y-125883390D02*
X130238095Y-125835771D01*
X130238095Y-125835771D02*
X130190476Y-125740533D01*
X130190476Y-125740533D02*
X130190476Y-125645295D01*
X130190476Y-125645295D02*
X130238095Y-125550057D01*
X130238095Y-125550057D02*
X130285714Y-125502438D01*
X130285714Y-125502438D02*
X130380952Y-125454819D01*
X130380952Y-125454819D02*
X130619047Y-125454819D01*
X130619047Y-125454819D02*
X130761904Y-125502438D01*
X131047619Y-125454819D02*
X131619047Y-125454819D01*
X131333333Y-126454819D02*
X131333333Y-125454819D01*
X132476190Y-126454819D02*
X131904762Y-126454819D01*
X132190476Y-126454819D02*
X132190476Y-125454819D01*
X132190476Y-125454819D02*
X132095238Y-125597676D01*
X132095238Y-125597676D02*
X132000000Y-125692914D01*
X132000000Y-125692914D02*
X131904762Y-125740533D01*
X158204819Y-112666666D02*
X158204819Y-113142856D01*
X158204819Y-113142856D02*
X157204819Y-113142856D01*
X158204819Y-112333332D02*
X157204819Y-112333332D01*
X157204819Y-112333332D02*
X157204819Y-112095237D01*
X157204819Y-112095237D02*
X157252438Y-111952380D01*
X157252438Y-111952380D02*
X157347676Y-111857142D01*
X157347676Y-111857142D02*
X157442914Y-111809523D01*
X157442914Y-111809523D02*
X157633390Y-111761904D01*
X157633390Y-111761904D02*
X157776247Y-111761904D01*
X157776247Y-111761904D02*
X157966723Y-111809523D01*
X157966723Y-111809523D02*
X158061961Y-111857142D01*
X158061961Y-111857142D02*
X158157200Y-111952380D01*
X158157200Y-111952380D02*
X158204819Y-112095237D01*
X158204819Y-112095237D02*
X158204819Y-112333332D01*
X158204819Y-110761904D02*
X157728628Y-111095237D01*
X158204819Y-111333332D02*
X157204819Y-111333332D01*
X157204819Y-111333332D02*
X157204819Y-110952380D01*
X157204819Y-110952380D02*
X157252438Y-110857142D01*
X157252438Y-110857142D02*
X157300057Y-110809523D01*
X157300057Y-110809523D02*
X157395295Y-110761904D01*
X157395295Y-110761904D02*
X157538152Y-110761904D01*
X157538152Y-110761904D02*
X157633390Y-110809523D01*
X157633390Y-110809523D02*
X157681009Y-110857142D01*
X157681009Y-110857142D02*
X157728628Y-110952380D01*
X157728628Y-110952380D02*
X157728628Y-111333332D01*
X158204819Y-109809523D02*
X158204819Y-110380951D01*
X158204819Y-110095237D02*
X157204819Y-110095237D01*
X157204819Y-110095237D02*
X157347676Y-110190475D01*
X157347676Y-110190475D02*
X157442914Y-110285713D01*
X157442914Y-110285713D02*
X157490533Y-110380951D01*
X126859580Y-60416666D02*
X126907200Y-60464285D01*
X126907200Y-60464285D02*
X126954819Y-60607142D01*
X126954819Y-60607142D02*
X126954819Y-60702380D01*
X126954819Y-60702380D02*
X126907200Y-60845237D01*
X126907200Y-60845237D02*
X126811961Y-60940475D01*
X126811961Y-60940475D02*
X126716723Y-60988094D01*
X126716723Y-60988094D02*
X126526247Y-61035713D01*
X126526247Y-61035713D02*
X126383390Y-61035713D01*
X126383390Y-61035713D02*
X126192914Y-60988094D01*
X126192914Y-60988094D02*
X126097676Y-60940475D01*
X126097676Y-60940475D02*
X126002438Y-60845237D01*
X126002438Y-60845237D02*
X125954819Y-60702380D01*
X125954819Y-60702380D02*
X125954819Y-60607142D01*
X125954819Y-60607142D02*
X126002438Y-60464285D01*
X126002438Y-60464285D02*
X126050057Y-60416666D01*
X126954819Y-59464285D02*
X126954819Y-60035713D01*
X126954819Y-59749999D02*
X125954819Y-59749999D01*
X125954819Y-59749999D02*
X126097676Y-59845237D01*
X126097676Y-59845237D02*
X126192914Y-59940475D01*
X126192914Y-59940475D02*
X126240533Y-60035713D01*
X142859580Y-60666666D02*
X142907200Y-60714285D01*
X142907200Y-60714285D02*
X142954819Y-60857142D01*
X142954819Y-60857142D02*
X142954819Y-60952380D01*
X142954819Y-60952380D02*
X142907200Y-61095237D01*
X142907200Y-61095237D02*
X142811961Y-61190475D01*
X142811961Y-61190475D02*
X142716723Y-61238094D01*
X142716723Y-61238094D02*
X142526247Y-61285713D01*
X142526247Y-61285713D02*
X142383390Y-61285713D01*
X142383390Y-61285713D02*
X142192914Y-61238094D01*
X142192914Y-61238094D02*
X142097676Y-61190475D01*
X142097676Y-61190475D02*
X142002438Y-61095237D01*
X142002438Y-61095237D02*
X141954819Y-60952380D01*
X141954819Y-60952380D02*
X141954819Y-60857142D01*
X141954819Y-60857142D02*
X142002438Y-60714285D01*
X142002438Y-60714285D02*
X142050057Y-60666666D01*
X142050057Y-60285713D02*
X142002438Y-60238094D01*
X142002438Y-60238094D02*
X141954819Y-60142856D01*
X141954819Y-60142856D02*
X141954819Y-59904761D01*
X141954819Y-59904761D02*
X142002438Y-59809523D01*
X142002438Y-59809523D02*
X142050057Y-59761904D01*
X142050057Y-59761904D02*
X142145295Y-59714285D01*
X142145295Y-59714285D02*
X142240533Y-59714285D01*
X142240533Y-59714285D02*
X142383390Y-59761904D01*
X142383390Y-59761904D02*
X142954819Y-60333332D01*
X142954819Y-60333332D02*
X142954819Y-59714285D01*
X127904761Y-105750057D02*
X127809523Y-105702438D01*
X127809523Y-105702438D02*
X127714285Y-105607200D01*
X127714285Y-105607200D02*
X127571428Y-105464342D01*
X127571428Y-105464342D02*
X127476190Y-105416723D01*
X127476190Y-105416723D02*
X127380952Y-105416723D01*
X127428571Y-105654819D02*
X127333333Y-105607200D01*
X127333333Y-105607200D02*
X127238095Y-105511961D01*
X127238095Y-105511961D02*
X127190476Y-105321485D01*
X127190476Y-105321485D02*
X127190476Y-104988152D01*
X127190476Y-104988152D02*
X127238095Y-104797676D01*
X127238095Y-104797676D02*
X127333333Y-104702438D01*
X127333333Y-104702438D02*
X127428571Y-104654819D01*
X127428571Y-104654819D02*
X127619047Y-104654819D01*
X127619047Y-104654819D02*
X127714285Y-104702438D01*
X127714285Y-104702438D02*
X127809523Y-104797676D01*
X127809523Y-104797676D02*
X127857142Y-104988152D01*
X127857142Y-104988152D02*
X127857142Y-105321485D01*
X127857142Y-105321485D02*
X127809523Y-105511961D01*
X127809523Y-105511961D02*
X127714285Y-105607200D01*
X127714285Y-105607200D02*
X127619047Y-105654819D01*
X127619047Y-105654819D02*
X127428571Y-105654819D01*
X128809523Y-105654819D02*
X128238095Y-105654819D01*
X128523809Y-105654819D02*
X128523809Y-104654819D01*
X128523809Y-104654819D02*
X128428571Y-104797676D01*
X128428571Y-104797676D02*
X128333333Y-104892914D01*
X128333333Y-104892914D02*
X128238095Y-104940533D01*
X157954819Y-100142856D02*
X156954819Y-100142856D01*
X156954819Y-100142856D02*
X156954819Y-99904761D01*
X156954819Y-99904761D02*
X157002438Y-99761904D01*
X157002438Y-99761904D02*
X157097676Y-99666666D01*
X157097676Y-99666666D02*
X157192914Y-99619047D01*
X157192914Y-99619047D02*
X157383390Y-99571428D01*
X157383390Y-99571428D02*
X157526247Y-99571428D01*
X157526247Y-99571428D02*
X157716723Y-99619047D01*
X157716723Y-99619047D02*
X157811961Y-99666666D01*
X157811961Y-99666666D02*
X157907200Y-99761904D01*
X157907200Y-99761904D02*
X157954819Y-99904761D01*
X157954819Y-99904761D02*
X157954819Y-100142856D01*
X157954819Y-99142856D02*
X156954819Y-99142856D01*
X157431009Y-99142856D02*
X157431009Y-98571428D01*
X157954819Y-98571428D02*
X156954819Y-98571428D01*
X156954819Y-98238094D02*
X156954819Y-97666666D01*
X157954819Y-97952380D02*
X156954819Y-97952380D01*
X157954819Y-96809523D02*
X157954819Y-97380951D01*
X157954819Y-97095237D02*
X156954819Y-97095237D01*
X156954819Y-97095237D02*
X157097676Y-97190475D01*
X157097676Y-97190475D02*
X157192914Y-97285713D01*
X157192914Y-97285713D02*
X157240533Y-97380951D01*
X146130952Y-126454819D02*
X145654762Y-126454819D01*
X145654762Y-126454819D02*
X145654762Y-125454819D01*
X146464286Y-125931009D02*
X146797619Y-125931009D01*
X146940476Y-126454819D02*
X146464286Y-126454819D01*
X146464286Y-126454819D02*
X146464286Y-125454819D01*
X146464286Y-125454819D02*
X146940476Y-125454819D01*
X147369048Y-126454819D02*
X147369048Y-125454819D01*
X147369048Y-125454819D02*
X147607143Y-125454819D01*
X147607143Y-125454819D02*
X147750000Y-125502438D01*
X147750000Y-125502438D02*
X147845238Y-125597676D01*
X147845238Y-125597676D02*
X147892857Y-125692914D01*
X147892857Y-125692914D02*
X147940476Y-125883390D01*
X147940476Y-125883390D02*
X147940476Y-126026247D01*
X147940476Y-126026247D02*
X147892857Y-126216723D01*
X147892857Y-126216723D02*
X147845238Y-126311961D01*
X147845238Y-126311961D02*
X147750000Y-126407200D01*
X147750000Y-126407200D02*
X147607143Y-126454819D01*
X147607143Y-126454819D02*
X147369048Y-126454819D01*
X148892857Y-126454819D02*
X148321429Y-126454819D01*
X148607143Y-126454819D02*
X148607143Y-125454819D01*
X148607143Y-125454819D02*
X148511905Y-125597676D01*
X148511905Y-125597676D02*
X148416667Y-125692914D01*
X148416667Y-125692914D02*
X148321429Y-125740533D01*
X55363095Y-42309819D02*
X55363095Y-43119342D01*
X55363095Y-43119342D02*
X55410714Y-43214580D01*
X55410714Y-43214580D02*
X55458333Y-43262200D01*
X55458333Y-43262200D02*
X55553571Y-43309819D01*
X55553571Y-43309819D02*
X55744047Y-43309819D01*
X55744047Y-43309819D02*
X55839285Y-43262200D01*
X55839285Y-43262200D02*
X55886904Y-43214580D01*
X55886904Y-43214580D02*
X55934523Y-43119342D01*
X55934523Y-43119342D02*
X55934523Y-42309819D01*
X56886904Y-42309819D02*
X56410714Y-42309819D01*
X56410714Y-42309819D02*
X56363095Y-42786009D01*
X56363095Y-42786009D02*
X56410714Y-42738390D01*
X56410714Y-42738390D02*
X56505952Y-42690771D01*
X56505952Y-42690771D02*
X56744047Y-42690771D01*
X56744047Y-42690771D02*
X56839285Y-42738390D01*
X56839285Y-42738390D02*
X56886904Y-42786009D01*
X56886904Y-42786009D02*
X56934523Y-42881247D01*
X56934523Y-42881247D02*
X56934523Y-43119342D01*
X56934523Y-43119342D02*
X56886904Y-43214580D01*
X56886904Y-43214580D02*
X56839285Y-43262200D01*
X56839285Y-43262200D02*
X56744047Y-43309819D01*
X56744047Y-43309819D02*
X56505952Y-43309819D01*
X56505952Y-43309819D02*
X56410714Y-43262200D01*
X56410714Y-43262200D02*
X56363095Y-43214580D01*
X142166666Y-43954819D02*
X142166666Y-44669104D01*
X142166666Y-44669104D02*
X142119047Y-44811961D01*
X142119047Y-44811961D02*
X142023809Y-44907200D01*
X142023809Y-44907200D02*
X141880952Y-44954819D01*
X141880952Y-44954819D02*
X141785714Y-44954819D01*
X143071428Y-44288152D02*
X143071428Y-44954819D01*
X142833333Y-43907200D02*
X142595238Y-44621485D01*
X142595238Y-44621485D02*
X143214285Y-44621485D01*
X125954819Y-73586666D02*
X125478628Y-73919999D01*
X125954819Y-74158094D02*
X124954819Y-74158094D01*
X124954819Y-74158094D02*
X124954819Y-73777142D01*
X124954819Y-73777142D02*
X125002438Y-73681904D01*
X125002438Y-73681904D02*
X125050057Y-73634285D01*
X125050057Y-73634285D02*
X125145295Y-73586666D01*
X125145295Y-73586666D02*
X125288152Y-73586666D01*
X125288152Y-73586666D02*
X125383390Y-73634285D01*
X125383390Y-73634285D02*
X125431009Y-73681904D01*
X125431009Y-73681904D02*
X125478628Y-73777142D01*
X125478628Y-73777142D02*
X125478628Y-74158094D01*
X125050057Y-73205713D02*
X125002438Y-73158094D01*
X125002438Y-73158094D02*
X124954819Y-73062856D01*
X124954819Y-73062856D02*
X124954819Y-72824761D01*
X124954819Y-72824761D02*
X125002438Y-72729523D01*
X125002438Y-72729523D02*
X125050057Y-72681904D01*
X125050057Y-72681904D02*
X125145295Y-72634285D01*
X125145295Y-72634285D02*
X125240533Y-72634285D01*
X125240533Y-72634285D02*
X125383390Y-72681904D01*
X125383390Y-72681904D02*
X125954819Y-73253332D01*
X125954819Y-73253332D02*
X125954819Y-72634285D01*
X156704819Y-75976190D02*
X157514342Y-75976190D01*
X157514342Y-75976190D02*
X157609580Y-75928571D01*
X157609580Y-75928571D02*
X157657200Y-75880952D01*
X157657200Y-75880952D02*
X157704819Y-75785714D01*
X157704819Y-75785714D02*
X157704819Y-75595238D01*
X157704819Y-75595238D02*
X157657200Y-75500000D01*
X157657200Y-75500000D02*
X157609580Y-75452381D01*
X157609580Y-75452381D02*
X157514342Y-75404762D01*
X157514342Y-75404762D02*
X156704819Y-75404762D01*
X157704819Y-74452381D02*
X157704819Y-74928571D01*
X157704819Y-74928571D02*
X156704819Y-74928571D01*
X156704819Y-74261904D02*
X156704819Y-73690476D01*
X157704819Y-73976190D02*
X156704819Y-73976190D01*
X157704819Y-72785714D02*
X157228628Y-73119047D01*
X157704819Y-73357142D02*
X156704819Y-73357142D01*
X156704819Y-73357142D02*
X156704819Y-72976190D01*
X156704819Y-72976190D02*
X156752438Y-72880952D01*
X156752438Y-72880952D02*
X156800057Y-72833333D01*
X156800057Y-72833333D02*
X156895295Y-72785714D01*
X156895295Y-72785714D02*
X157038152Y-72785714D01*
X157038152Y-72785714D02*
X157133390Y-72833333D01*
X157133390Y-72833333D02*
X157181009Y-72880952D01*
X157181009Y-72880952D02*
X157228628Y-72976190D01*
X157228628Y-72976190D02*
X157228628Y-73357142D01*
X157419104Y-72404761D02*
X157419104Y-71928571D01*
X157704819Y-72499999D02*
X156704819Y-72166666D01*
X156704819Y-72166666D02*
X157704819Y-71833333D01*
X157704819Y-70976190D02*
X157704819Y-71547618D01*
X157704819Y-71261904D02*
X156704819Y-71261904D01*
X156704819Y-71261904D02*
X156847676Y-71357142D01*
X156847676Y-71357142D02*
X156942914Y-71452380D01*
X156942914Y-71452380D02*
X156990533Y-71547618D01*
X158204819Y-121369047D02*
X158204819Y-121845237D01*
X158204819Y-121845237D02*
X157204819Y-121845237D01*
X157681009Y-121035713D02*
X157681009Y-120702380D01*
X158204819Y-120559523D02*
X158204819Y-121035713D01*
X158204819Y-121035713D02*
X157204819Y-121035713D01*
X157204819Y-121035713D02*
X157204819Y-120559523D01*
X158204819Y-120130951D02*
X157204819Y-120130951D01*
X157204819Y-120130951D02*
X157204819Y-119892856D01*
X157204819Y-119892856D02*
X157252438Y-119749999D01*
X157252438Y-119749999D02*
X157347676Y-119654761D01*
X157347676Y-119654761D02*
X157442914Y-119607142D01*
X157442914Y-119607142D02*
X157633390Y-119559523D01*
X157633390Y-119559523D02*
X157776247Y-119559523D01*
X157776247Y-119559523D02*
X157966723Y-119607142D01*
X157966723Y-119607142D02*
X158061961Y-119654761D01*
X158061961Y-119654761D02*
X158157200Y-119749999D01*
X158157200Y-119749999D02*
X158204819Y-119892856D01*
X158204819Y-119892856D02*
X158204819Y-120130951D01*
X157300057Y-119178570D02*
X157252438Y-119130951D01*
X157252438Y-119130951D02*
X157204819Y-119035713D01*
X157204819Y-119035713D02*
X157204819Y-118797618D01*
X157204819Y-118797618D02*
X157252438Y-118702380D01*
X157252438Y-118702380D02*
X157300057Y-118654761D01*
X157300057Y-118654761D02*
X157395295Y-118607142D01*
X157395295Y-118607142D02*
X157490533Y-118607142D01*
X157490533Y-118607142D02*
X157633390Y-118654761D01*
X157633390Y-118654761D02*
X158204819Y-119226189D01*
X158204819Y-119226189D02*
X158204819Y-118607142D01*
X125833333Y-93454819D02*
X125500000Y-92978628D01*
X125261905Y-93454819D02*
X125261905Y-92454819D01*
X125261905Y-92454819D02*
X125642857Y-92454819D01*
X125642857Y-92454819D02*
X125738095Y-92502438D01*
X125738095Y-92502438D02*
X125785714Y-92550057D01*
X125785714Y-92550057D02*
X125833333Y-92645295D01*
X125833333Y-92645295D02*
X125833333Y-92788152D01*
X125833333Y-92788152D02*
X125785714Y-92883390D01*
X125785714Y-92883390D02*
X125738095Y-92931009D01*
X125738095Y-92931009D02*
X125642857Y-92978628D01*
X125642857Y-92978628D02*
X125261905Y-92978628D01*
X126785714Y-93454819D02*
X126214286Y-93454819D01*
X126500000Y-93454819D02*
X126500000Y-92454819D01*
X126500000Y-92454819D02*
X126404762Y-92597676D01*
X126404762Y-92597676D02*
X126309524Y-92692914D01*
X126309524Y-92692914D02*
X126214286Y-92740533D01*
X156764819Y-60833333D02*
X157479104Y-60833333D01*
X157479104Y-60833333D02*
X157621961Y-60880952D01*
X157621961Y-60880952D02*
X157717200Y-60976190D01*
X157717200Y-60976190D02*
X157764819Y-61119047D01*
X157764819Y-61119047D02*
X157764819Y-61214285D01*
X156764819Y-60452380D02*
X156764819Y-59833333D01*
X156764819Y-59833333D02*
X157145771Y-60166666D01*
X157145771Y-60166666D02*
X157145771Y-60023809D01*
X157145771Y-60023809D02*
X157193390Y-59928571D01*
X157193390Y-59928571D02*
X157241009Y-59880952D01*
X157241009Y-59880952D02*
X157336247Y-59833333D01*
X157336247Y-59833333D02*
X157574342Y-59833333D01*
X157574342Y-59833333D02*
X157669580Y-59880952D01*
X157669580Y-59880952D02*
X157717200Y-59928571D01*
X157717200Y-59928571D02*
X157764819Y-60023809D01*
X157764819Y-60023809D02*
X157764819Y-60309523D01*
X157764819Y-60309523D02*
X157717200Y-60404761D01*
X157717200Y-60404761D02*
X157669580Y-60452380D01*
X141661905Y-85754819D02*
X141661905Y-84754819D01*
X142233333Y-85754819D02*
X141804762Y-85183390D01*
X142233333Y-84754819D02*
X141661905Y-85326247D01*
X143185714Y-85754819D02*
X142614286Y-85754819D01*
X142900000Y-85754819D02*
X142900000Y-84754819D01*
X142900000Y-84754819D02*
X142804762Y-84897676D01*
X142804762Y-84897676D02*
X142709524Y-84992914D01*
X142709524Y-84992914D02*
X142614286Y-85040533D01*
X141661905Y-66754819D02*
X141661905Y-65754819D01*
X142233333Y-66754819D02*
X141804762Y-66183390D01*
X142233333Y-65754819D02*
X141661905Y-66326247D01*
X142614286Y-65850057D02*
X142661905Y-65802438D01*
X142661905Y-65802438D02*
X142757143Y-65754819D01*
X142757143Y-65754819D02*
X142995238Y-65754819D01*
X142995238Y-65754819D02*
X143090476Y-65802438D01*
X143090476Y-65802438D02*
X143138095Y-65850057D01*
X143138095Y-65850057D02*
X143185714Y-65945295D01*
X143185714Y-65945295D02*
X143185714Y-66040533D01*
X143185714Y-66040533D02*
X143138095Y-66183390D01*
X143138095Y-66183390D02*
X142566667Y-66754819D01*
X142566667Y-66754819D02*
X143185714Y-66754819D01*
X137595237Y-126454819D02*
X137119047Y-126454819D01*
X137119047Y-126454819D02*
X137119047Y-125454819D01*
X137928571Y-125931009D02*
X138261904Y-125931009D01*
X138404761Y-126454819D02*
X137928571Y-126454819D01*
X137928571Y-126454819D02*
X137928571Y-125454819D01*
X137928571Y-125454819D02*
X138404761Y-125454819D01*
X138690476Y-125454819D02*
X139023809Y-126454819D01*
X139023809Y-126454819D02*
X139357142Y-125454819D01*
X139690476Y-125931009D02*
X140023809Y-125931009D01*
X140166666Y-126454819D02*
X139690476Y-126454819D01*
X139690476Y-126454819D02*
X139690476Y-125454819D01*
X139690476Y-125454819D02*
X140166666Y-125454819D01*
X141071428Y-126454819D02*
X140595238Y-126454819D01*
X140595238Y-126454819D02*
X140595238Y-125454819D01*
X141928571Y-126454819D02*
X141357143Y-126454819D01*
X141642857Y-126454819D02*
X141642857Y-125454819D01*
X141642857Y-125454819D02*
X141547619Y-125597676D01*
X141547619Y-125597676D02*
X141452381Y-125692914D01*
X141452381Y-125692914D02*
X141357143Y-125740533D01*
X134078095Y-54957319D02*
X134078095Y-55766842D01*
X134078095Y-55766842D02*
X134125714Y-55862080D01*
X134125714Y-55862080D02*
X134173333Y-55909700D01*
X134173333Y-55909700D02*
X134268571Y-55957319D01*
X134268571Y-55957319D02*
X134459047Y-55957319D01*
X134459047Y-55957319D02*
X134554285Y-55909700D01*
X134554285Y-55909700D02*
X134601904Y-55862080D01*
X134601904Y-55862080D02*
X134649523Y-55766842D01*
X134649523Y-55766842D02*
X134649523Y-54957319D01*
X135649523Y-55957319D02*
X135078095Y-55957319D01*
X135363809Y-55957319D02*
X135363809Y-54957319D01*
X135363809Y-54957319D02*
X135268571Y-55100176D01*
X135268571Y-55100176D02*
X135173333Y-55195414D01*
X135173333Y-55195414D02*
X135078095Y-55243033D01*
X131166666Y-49704819D02*
X131166666Y-50419104D01*
X131166666Y-50419104D02*
X131119047Y-50561961D01*
X131119047Y-50561961D02*
X131023809Y-50657200D01*
X131023809Y-50657200D02*
X130880952Y-50704819D01*
X130880952Y-50704819D02*
X130785714Y-50704819D01*
X131595238Y-49800057D02*
X131642857Y-49752438D01*
X131642857Y-49752438D02*
X131738095Y-49704819D01*
X131738095Y-49704819D02*
X131976190Y-49704819D01*
X131976190Y-49704819D02*
X132071428Y-49752438D01*
X132071428Y-49752438D02*
X132119047Y-49800057D01*
X132119047Y-49800057D02*
X132166666Y-49895295D01*
X132166666Y-49895295D02*
X132166666Y-49990533D01*
X132166666Y-49990533D02*
X132119047Y-50133390D01*
X132119047Y-50133390D02*
X131547619Y-50704819D01*
X131547619Y-50704819D02*
X132166666Y-50704819D01*
D12*
X130000000Y-69640000D02*
X130000000Y-70860000D01*
X131470000Y-70860000D02*
X128530000Y-70860000D01*
X128530000Y-70860000D02*
X128530000Y-76300000D01*
X131470000Y-71640000D02*
X128530000Y-71640000D01*
X131470000Y-71760000D02*
X128530000Y-71760000D01*
X131470000Y-71880000D02*
X128530000Y-71880000D01*
X131470000Y-76300000D02*
X131470000Y-70860000D01*
X128530000Y-76300000D02*
X131470000Y-76300000D01*
X130000000Y-77520000D02*
X130000000Y-76300000D01*
X130000000Y-89060000D02*
X130000000Y-90280000D01*
X131470000Y-90280000D02*
X128530000Y-90280000D01*
X128530000Y-90280000D02*
X128530000Y-95720000D01*
X131470000Y-91060000D02*
X128530000Y-91060000D01*
X131470000Y-91180000D02*
X128530000Y-91180000D01*
X131470000Y-91300000D02*
X128530000Y-91300000D01*
X131470000Y-95720000D02*
X131470000Y-90280000D01*
X128530000Y-95720000D02*
X131470000Y-95720000D01*
X130000000Y-96940000D02*
X130000000Y-95720000D01*
X151580000Y-47745000D02*
X151580000Y-52885000D01*
X148920000Y-52885000D02*
X151580000Y-52885000D01*
X148920000Y-47745000D02*
X151580000Y-47745000D01*
X148920000Y-47745000D02*
X148920000Y-52885000D01*
X148920000Y-46475000D02*
X148920000Y-45145000D01*
X148920000Y-45145000D02*
X150250000Y-45145000D01*
X155830000Y-47770000D02*
X155830000Y-52910000D01*
X153170000Y-52910000D02*
X155830000Y-52910000D01*
X153170000Y-47770000D02*
X155830000Y-47770000D01*
X153170000Y-47770000D02*
X153170000Y-52910000D01*
X153170000Y-46500000D02*
X153170000Y-45170000D01*
X153170000Y-45170000D02*
X154500000Y-45170000D01*
X155830000Y-83970000D02*
X155830000Y-91650000D01*
X153170000Y-91650000D02*
X155830000Y-91650000D01*
X153170000Y-83970000D02*
X155830000Y-83970000D01*
X153170000Y-83970000D02*
X153170000Y-91650000D01*
X153170000Y-82700000D02*
X153170000Y-81370000D01*
X153170000Y-81370000D02*
X154500000Y-81370000D01*
X129300000Y-80790000D02*
X125700000Y-80790000D01*
X127500000Y-85240000D02*
G75*
G02*
X125661522Y-80801522I0J2600000D01*
G01*
X129338478Y-80801522D02*
G75*
G02*
X127500000Y-85240001I-1838478J-1838478D01*
G01*
X126115000Y-121670000D02*
X126115000Y-124330000D01*
X131255000Y-121670000D02*
X126115000Y-121670000D01*
X131255000Y-121670000D02*
X131255000Y-124330000D01*
X131255000Y-124330000D02*
X126115000Y-124330000D01*
X132525000Y-121670000D02*
X133855000Y-121670000D01*
X133855000Y-121670000D02*
X133855000Y-123000000D01*
X155830000Y-108690000D02*
X155830000Y-116370000D01*
X153170000Y-116370000D02*
X155830000Y-116370000D01*
X153170000Y-108690000D02*
X155830000Y-108690000D01*
X153170000Y-108690000D02*
X153170000Y-116370000D01*
X153170000Y-107420000D02*
X153170000Y-106090000D01*
X153170000Y-106090000D02*
X154500000Y-106090000D01*
X125080000Y-58230000D02*
X125080000Y-62270000D01*
X125080000Y-62270000D02*
X127920000Y-62270000D01*
X126500000Y-57540000D02*
X126500000Y-58230000D01*
X126500000Y-62960000D02*
X126500000Y-62270000D01*
X127920000Y-58230000D02*
X125080000Y-58230000D01*
X127920000Y-62270000D02*
X127920000Y-58230000D01*
X141080000Y-58480000D02*
X141080000Y-62520000D01*
X141080000Y-62520000D02*
X143920000Y-62520000D01*
X142500000Y-57790000D02*
X142500000Y-58480000D01*
X142500000Y-63210000D02*
X142500000Y-62520000D01*
X143920000Y-58480000D02*
X141080000Y-58480000D01*
X143920000Y-62520000D02*
X143920000Y-58480000D01*
X129800000Y-99790000D02*
X126200000Y-99790000D01*
X128000000Y-104240000D02*
G75*
G02*
X126161522Y-99801522I0J2600000D01*
G01*
X129838478Y-99801522D02*
G75*
G02*
X128000000Y-104240001I-1838478J-1838478D01*
G01*
X153170000Y-94645000D02*
X154500000Y-94645000D01*
X153170000Y-95975000D02*
X153170000Y-94645000D01*
X153170000Y-97245000D02*
X153170000Y-102385000D01*
X153170000Y-97245000D02*
X155830000Y-97245000D01*
X153170000Y-102385000D02*
X155830000Y-102385000D01*
X155830000Y-97245000D02*
X155830000Y-102385000D01*
X144405000Y-121670000D02*
X144405000Y-124330000D01*
X147005000Y-121670000D02*
X144405000Y-121670000D01*
X147005000Y-121670000D02*
X147005000Y-124330000D01*
X147005000Y-124330000D02*
X144405000Y-124330000D01*
X148275000Y-121670000D02*
X149605000Y-121670000D01*
X149605000Y-121670000D02*
X149605000Y-123000000D01*
D13*
X52950000Y-123240000D02*
X52950000Y-45740000D01*
X54450000Y-44240000D02*
X121450000Y-44240000D01*
X54970000Y-74710000D02*
X54970000Y-122970000D01*
X54970000Y-122970000D02*
X59970000Y-122970000D01*
X59970000Y-74710000D02*
X54970000Y-74710000D01*
X59970000Y-122970000D02*
X59970000Y-74710000D01*
X62570000Y-84620000D02*
X62570000Y-105440000D01*
X62570000Y-105440000D02*
X65070000Y-105440000D01*
X62570000Y-107480000D02*
X62570000Y-123220000D01*
X62570000Y-123220000D02*
X65070000Y-123220000D01*
X63950000Y-124740000D02*
X54450000Y-124740000D01*
X65070000Y-84620000D02*
X62570000Y-84620000D01*
X65070000Y-105440000D02*
X65070000Y-84620000D01*
X65070000Y-107480000D02*
X62570000Y-107480000D01*
X65070000Y-123220000D02*
X65070000Y-107480000D01*
X65950000Y-126740000D02*
X63950000Y-124740000D01*
X98950000Y-126740000D02*
X65950000Y-126740000D01*
X100950000Y-124740000D02*
X98950000Y-126740000D01*
X110830000Y-75480000D02*
X110830000Y-101380000D01*
X110830000Y-101380000D02*
X113330000Y-101380000D01*
X110830000Y-102400000D02*
X110830000Y-123220000D01*
X110830000Y-123220000D02*
X113330000Y-123220000D01*
X113330000Y-75480000D02*
X110830000Y-75480000D01*
X113330000Y-101380000D02*
X113330000Y-75480000D01*
X113330000Y-102400000D02*
X110830000Y-102400000D01*
X113330000Y-123220000D02*
X113330000Y-102400000D01*
X115930000Y-74710000D02*
X115930000Y-122970000D01*
X115930000Y-122970000D02*
X120930000Y-122970000D01*
X120930000Y-74710000D02*
X115930000Y-74710000D01*
X120930000Y-122970000D02*
X120930000Y-74710000D01*
X121450000Y-124740000D02*
X100950000Y-124740000D01*
X122950000Y-45740000D02*
X122950000Y-123240000D01*
X52950000Y-45740000D02*
G75*
G02*
X54450000Y-44240000I1500001J-1D01*
G01*
X54450000Y-124740000D02*
G75*
G02*
X52950000Y-123240000I1J1500001D01*
G01*
X121450000Y-44240000D02*
G75*
G02*
X122950000Y-45740000I0J-1500000D01*
G01*
X122950000Y-123240000D02*
G75*
G02*
X121450000Y-124740000I-1500000J0D01*
G01*
D10*
X54550000Y-75980000D02*
G75*
G02*
X54350000Y-75980000I-100000J0D01*
G01*
X54350000Y-75980000D02*
G75*
G02*
X54550000Y-75980000I100000J0D01*
G01*
X62170000Y-86140000D02*
G75*
G02*
X61970000Y-86140000I-100000J0D01*
G01*
X61970000Y-86140000D02*
G75*
G02*
X62170000Y-86140000I100000J0D01*
G01*
X62170000Y-109000000D02*
G75*
G02*
X61970000Y-109000000I-100000J0D01*
G01*
X61970000Y-109000000D02*
G75*
G02*
X62170000Y-109000000I100000J0D01*
G01*
X113930000Y-99860000D02*
G75*
G02*
X113730000Y-99860000I-100000J0D01*
G01*
X113730000Y-99860000D02*
G75*
G02*
X113930000Y-99860000I100000J0D01*
G01*
X113930000Y-121700000D02*
G75*
G02*
X113730000Y-121700000I-100000J0D01*
G01*
X113730000Y-121700000D02*
G75*
G02*
X113930000Y-121700000I100000J0D01*
G01*
X115510000Y-75980000D02*
G75*
G02*
X115310000Y-75980000I-100000J0D01*
G01*
X115310000Y-75980000D02*
G75*
G02*
X115510000Y-75980000I100000J0D01*
G01*
D12*
X137200000Y-51060000D02*
X137200000Y-53300000D01*
X137200000Y-53300000D02*
X139200000Y-53300000D01*
X137440000Y-42440000D02*
X137440000Y-53060000D01*
X137440000Y-42440000D02*
X147560000Y-42440000D01*
X137440000Y-46000000D02*
X147560000Y-46000000D01*
X137440000Y-47000000D02*
X147560000Y-47000000D01*
X137440000Y-51000000D02*
X147560000Y-51000000D01*
X137440000Y-53060000D02*
X147560000Y-53060000D01*
X143700000Y-50083000D02*
X143650000Y-50133000D01*
X143892000Y-50325000D02*
X143868000Y-50350000D01*
X146133000Y-47650000D02*
X146108000Y-47674000D01*
X146350000Y-47867000D02*
X146301000Y-47917000D01*
X147560000Y-42440000D02*
X147560000Y-53060000D01*
X138360794Y-49695516D02*
G75*
G02*
X138361000Y-48304000I1639201J695515D01*
G01*
X139304484Y-47360794D02*
G75*
G02*
X140696000Y-47361000I695515J-1639201D01*
G01*
X140030814Y-50780390D02*
G75*
G02*
X139304000Y-50639000I-30816J1780376D01*
G01*
X140695501Y-50638499D02*
G75*
G02*
X140000000Y-50780000I-695501J1638501D01*
G01*
X141639206Y-48304484D02*
G75*
G02*
X141639000Y-49696000I-1639206J-695516D01*
G01*
X146780000Y-49000000D02*
G75*
G02*
X143220000Y-49000000I-1780000J0D01*
G01*
X143220000Y-49000000D02*
G75*
G02*
X146780000Y-49000000I1780000J0D01*
G01*
X124130000Y-70150000D02*
X124130000Y-76690000D01*
X124130000Y-76690000D02*
X126870000Y-76690000D01*
X125500000Y-69380000D02*
X125500000Y-70150000D01*
X125500000Y-77460000D02*
X125500000Y-76690000D01*
X126870000Y-70150000D02*
X124130000Y-70150000D01*
X126870000Y-76690000D02*
X126870000Y-70150000D01*
X153170000Y-67870000D02*
X154500000Y-67870000D01*
X153170000Y-69200000D02*
X153170000Y-67870000D01*
X153170000Y-70470000D02*
X153170000Y-78150000D01*
X153170000Y-70470000D02*
X155830000Y-70470000D01*
X153170000Y-78150000D02*
X155830000Y-78150000D01*
X155830000Y-70470000D02*
X155830000Y-78150000D01*
X153170000Y-117630000D02*
X154500000Y-117630000D01*
X153170000Y-118960000D02*
X153170000Y-117630000D01*
X153170000Y-120230000D02*
X153170000Y-122830000D01*
X153170000Y-120230000D02*
X155830000Y-120230000D01*
X153170000Y-122830000D02*
X155830000Y-122830000D01*
X155830000Y-120230000D02*
X155830000Y-122830000D01*
X124630000Y-89730000D02*
X124630000Y-96270000D01*
X124630000Y-96270000D02*
X127370000Y-96270000D01*
X126000000Y-88960000D02*
X126000000Y-89730000D01*
X126000000Y-97040000D02*
X126000000Y-96270000D01*
X127370000Y-89730000D02*
X124630000Y-89730000D01*
X127370000Y-96270000D02*
X127370000Y-89730000D01*
X145450000Y-55200000D02*
X145450000Y-57200000D01*
X145690000Y-55440000D02*
X145690000Y-65560000D01*
X147690000Y-55200000D02*
X145450000Y-55200000D01*
X147750000Y-55440000D02*
X147750000Y-65560000D01*
X148425000Y-61892000D02*
X148400000Y-61868000D01*
X148667000Y-61700000D02*
X148617000Y-61650000D01*
X150883000Y-64350000D02*
X150833000Y-64301000D01*
X151100000Y-64133000D02*
X151076000Y-64108000D01*
X151750000Y-55440000D02*
X151750000Y-65560000D01*
X152750000Y-55440000D02*
X152750000Y-65560000D01*
X156310000Y-55440000D02*
X145690000Y-55440000D01*
X156310000Y-55440000D02*
X156310000Y-65560000D01*
X156310000Y-65560000D02*
X145690000Y-65560000D01*
X147969610Y-58030814D02*
G75*
G02*
X148111000Y-57304000I1780376J30816D01*
G01*
X148111501Y-58695501D02*
G75*
G02*
X147970000Y-58000000I1638501J695501D01*
G01*
X149054484Y-56360794D02*
G75*
G02*
X150446000Y-56361000I695515J-1639201D01*
G01*
X150445516Y-59639206D02*
G75*
G02*
X149054000Y-59639000I-695516J1639206D01*
G01*
X151389206Y-57304484D02*
G75*
G02*
X151389000Y-58696000I-1639201J-695515D01*
G01*
X151530000Y-63000000D02*
G75*
G02*
X147970000Y-63000000I-1780000J0D01*
G01*
X147970000Y-63000000D02*
G75*
G02*
X151530000Y-63000000I1780000J0D01*
G01*
X132100000Y-86700000D02*
X151900000Y-86700000D01*
X132100000Y-102300000D02*
X132100000Y-86700000D01*
X136350000Y-90300000D02*
X136350000Y-92750000D01*
X136350000Y-98700000D02*
X136350000Y-96200000D01*
X139550000Y-94450000D02*
X134950000Y-96950000D01*
X141050000Y-90850000D02*
X147850000Y-90850000D01*
X141050000Y-94450000D02*
X139550000Y-94450000D01*
X141050000Y-94450000D02*
X141050000Y-90850000D01*
X142450000Y-92650000D02*
X146450000Y-92650000D01*
X142450000Y-92650000D02*
X146450000Y-96250000D01*
X142450000Y-96250000D02*
X142450000Y-92650000D01*
X144450000Y-92650000D02*
X144450000Y-88450000D01*
X144450000Y-100450000D02*
X144450000Y-96250000D01*
X144450000Y-100450000D02*
X146950000Y-100450000D01*
X146450000Y-92650000D02*
X146450000Y-96250000D01*
X146450000Y-96250000D02*
X142450000Y-96250000D01*
X146950000Y-88450000D02*
X144450000Y-88450000D01*
X147850000Y-94450000D02*
X147850000Y-90850000D01*
X147850000Y-94450000D02*
X148650000Y-94450000D01*
X151900000Y-93300000D02*
X151900000Y-86700000D01*
X151900000Y-102300000D02*
X132100000Y-102300000D01*
X151900000Y-102300000D02*
X151900000Y-95700000D01*
X151900000Y-83300000D02*
X151900000Y-76700000D01*
X151900000Y-83300000D02*
X132100000Y-83300000D01*
X151900000Y-74300000D02*
X151900000Y-67700000D01*
X147850000Y-75450000D02*
X148650000Y-75450000D01*
X147850000Y-75450000D02*
X147850000Y-71850000D01*
X146950000Y-69450000D02*
X144450000Y-69450000D01*
X146450000Y-77250000D02*
X142450000Y-77250000D01*
X146450000Y-73650000D02*
X146450000Y-77250000D01*
X144450000Y-81450000D02*
X146950000Y-81450000D01*
X144450000Y-81450000D02*
X144450000Y-77250000D01*
X144450000Y-73650000D02*
X144450000Y-69450000D01*
X142450000Y-77250000D02*
X142450000Y-73650000D01*
X142450000Y-73650000D02*
X146450000Y-77250000D01*
X142450000Y-73650000D02*
X146450000Y-73650000D01*
X141050000Y-75450000D02*
X141050000Y-71850000D01*
X141050000Y-75450000D02*
X139550000Y-75450000D01*
X141050000Y-71850000D02*
X147850000Y-71850000D01*
X139550000Y-75450000D02*
X134950000Y-77950000D01*
X136350000Y-79700000D02*
X136350000Y-77200000D01*
X136350000Y-71300000D02*
X136350000Y-73750000D01*
X132100000Y-83300000D02*
X132100000Y-67700000D01*
X132100000Y-67700000D02*
X151900000Y-67700000D01*
X135615000Y-121670000D02*
X135615000Y-124330000D01*
X140755000Y-121670000D02*
X135615000Y-121670000D01*
X140755000Y-121670000D02*
X140755000Y-124330000D01*
X140755000Y-124330000D02*
X135615000Y-124330000D01*
X142025000Y-121670000D02*
X143355000Y-121670000D01*
X143355000Y-121670000D02*
X143355000Y-123000000D01*
X131530000Y-56552500D02*
X131530000Y-56822500D01*
X131530000Y-63452500D02*
X131530000Y-63182500D01*
X137950000Y-56552500D02*
X131530000Y-56552500D01*
X137950000Y-63452500D02*
X131530000Y-63452500D01*
X130110000Y-56862500D02*
X129870000Y-56532500D01*
X130350000Y-56532500D01*
X130110000Y-56862500D01*
G36*
X130110000Y-56862500D02*
G01*
X129870000Y-56532500D01*
X130350000Y-56532500D01*
X130110000Y-56862500D01*
G37*
X126880000Y-39730000D02*
X126880000Y-47850000D01*
X126880000Y-53250000D02*
X126880000Y-54470000D01*
X126880000Y-54470000D02*
X128550000Y-54470000D01*
X134450000Y-54470000D02*
X136120000Y-54470000D01*
X136120000Y-39730000D02*
X126880000Y-39730000D01*
X136120000Y-54470000D02*
X136120000Y-39730000D01*
%LPC*%
D14*
X83000000Y-118250000D03*
X57000000Y-46500000D03*
D15*
X130000000Y-68500000D03*
D16*
X130000000Y-78660000D03*
D15*
X130000000Y-87920000D03*
D16*
X130000000Y-98080000D03*
D17*
X150250000Y-51555000D03*
X150250000Y-49015000D03*
D18*
X150250000Y-46475000D03*
D17*
X154500000Y-51580000D03*
X154500000Y-49040000D03*
D18*
X154500000Y-46500000D03*
X154500000Y-82700000D03*
D17*
X154500000Y-85240000D03*
X154500000Y-87780000D03*
X154500000Y-90320000D03*
D19*
X128770000Y-82640000D03*
D20*
X127500000Y-82640000D03*
X126230000Y-82640000D03*
D18*
X132525000Y-123000000D03*
D17*
X129985000Y-123000000D03*
X127445000Y-123000000D03*
D18*
X154500000Y-107420000D03*
D17*
X154500000Y-109960000D03*
X154500000Y-112500000D03*
X154500000Y-115040000D03*
D21*
X126500000Y-56500000D03*
D22*
X126500000Y-64000000D03*
D21*
X142500000Y-64250000D03*
D22*
X142500000Y-56750000D03*
D19*
X129270000Y-101640000D03*
D20*
X128000000Y-101640000D03*
X126730000Y-101640000D03*
D18*
X154500000Y-95975000D03*
D17*
X154500000Y-98515000D03*
X154500000Y-101055000D03*
D18*
X148275000Y-123000000D03*
D17*
X145735000Y-123000000D03*
D23*
X63820000Y-72170000D03*
X96840000Y-124240000D03*
X112080000Y-73440000D03*
D24*
X112080000Y-99860000D03*
D25*
X112080000Y-97320000D03*
X112080000Y-94780000D03*
X112080000Y-92240000D03*
X112080000Y-89700000D03*
X112080000Y-87160000D03*
X112080000Y-84620000D03*
X112080000Y-82080000D03*
X112080000Y-79540000D03*
X112080000Y-77000000D03*
D24*
X63820000Y-86140000D03*
D25*
X63820000Y-88680000D03*
X63820000Y-91220000D03*
X63820000Y-93760000D03*
X63820000Y-96300000D03*
X63820000Y-98840000D03*
X63820000Y-101380000D03*
X63820000Y-103920000D03*
D26*
X56200000Y-75980000D03*
D27*
X58740000Y-75980000D03*
X56200000Y-78520000D03*
X58740000Y-78520000D03*
X56200000Y-81060000D03*
X58740000Y-81060000D03*
X56200000Y-83600000D03*
X58740000Y-83600000D03*
X56200000Y-86140000D03*
X58740000Y-86140000D03*
X56200000Y-88680000D03*
X58740000Y-88680000D03*
X56200000Y-91220000D03*
X58740000Y-91220000D03*
X56200000Y-93760000D03*
X58740000Y-93760000D03*
X56200000Y-96300000D03*
X58740000Y-96300000D03*
X56200000Y-98840000D03*
X58740000Y-98840000D03*
X56200000Y-101380000D03*
X58740000Y-101380000D03*
X56200000Y-103920000D03*
X58740000Y-103920000D03*
X56200000Y-106460000D03*
X58740000Y-106460000D03*
X56200000Y-109000000D03*
X58740000Y-109000000D03*
X56200000Y-111540000D03*
X58740000Y-111540000D03*
X56200000Y-114080000D03*
X58740000Y-114080000D03*
X56200000Y-116620000D03*
X58740000Y-116620000D03*
X56200000Y-119160000D03*
X58740000Y-119160000D03*
X56200000Y-121700000D03*
X58740000Y-121700000D03*
D24*
X63820000Y-109000000D03*
D25*
X63820000Y-111540000D03*
X63820000Y-114080000D03*
X63820000Y-116620000D03*
X63820000Y-119160000D03*
X63820000Y-121700000D03*
D24*
X112080000Y-121700000D03*
D25*
X112080000Y-119160000D03*
X112080000Y-116620000D03*
X112080000Y-114080000D03*
X112080000Y-111540000D03*
X112080000Y-109000000D03*
X112080000Y-106460000D03*
X112080000Y-103920000D03*
D26*
X117160000Y-75980000D03*
D27*
X119700000Y-75980000D03*
X117160000Y-78520000D03*
X119700000Y-78520000D03*
X117160000Y-81060000D03*
X119700000Y-81060000D03*
X117160000Y-83600000D03*
X119700000Y-83600000D03*
X117160000Y-86140000D03*
X119700000Y-86140000D03*
X117160000Y-88680000D03*
X119700000Y-88680000D03*
X117160000Y-91220000D03*
X119700000Y-91220000D03*
X117160000Y-93760000D03*
X119700000Y-93760000D03*
X117160000Y-96300000D03*
X119700000Y-96300000D03*
X117160000Y-98840000D03*
X119700000Y-98840000D03*
X117160000Y-101380000D03*
X119700000Y-101380000D03*
X117160000Y-103920000D03*
X119700000Y-103920000D03*
X117160000Y-106460000D03*
X119700000Y-106460000D03*
X117160000Y-109000000D03*
X119700000Y-109000000D03*
X117160000Y-111540000D03*
X119700000Y-111540000D03*
X117160000Y-114080000D03*
X119700000Y-114080000D03*
X117160000Y-116620000D03*
X119700000Y-116620000D03*
X117160000Y-119160000D03*
X119700000Y-119160000D03*
X117160000Y-121700000D03*
X119700000Y-121700000D03*
D28*
X140000000Y-49000000D03*
D29*
X145000000Y-49000000D03*
D22*
X125500000Y-68340000D03*
D21*
X125500000Y-78500000D03*
D18*
X154500000Y-69200000D03*
D17*
X154500000Y-71740000D03*
X154500000Y-74280000D03*
X154500000Y-76820000D03*
D18*
X154500000Y-118960000D03*
D17*
X154500000Y-121500000D03*
D21*
X126000000Y-98080000D03*
D22*
X126000000Y-87920000D03*
D28*
X149750000Y-58000000D03*
D29*
X149750000Y-63000000D03*
D23*
X150500000Y-94500000D03*
D30*
X148550000Y-88450000D03*
D23*
X136350000Y-88450000D03*
X136300000Y-100500000D03*
D30*
X148550000Y-100450000D03*
X148550000Y-81450000D03*
D23*
X136300000Y-81500000D03*
X136350000Y-69450000D03*
D30*
X148550000Y-69450000D03*
D23*
X150500000Y-75500000D03*
D18*
X142025000Y-123000000D03*
D17*
X139485000Y-123000000D03*
X136945000Y-123000000D03*
D31*
X129800000Y-57722500D03*
D32*
X136100000Y-60002500D03*
D31*
X129800000Y-62282500D03*
D33*
X131500000Y-53750000D03*
D34*
X131500000Y-47550000D03*
D35*
X126800000Y-50550000D03*
D18*
X129000000Y-109200000D03*
D17*
X126460000Y-109200000D03*
X129000000Y-111740000D03*
X126460000Y-111740000D03*
X129000000Y-114280000D03*
X126460000Y-114280000D03*
X129000000Y-116820000D03*
X126460000Y-116820000D03*
%LPD*%
M02*
